<mxfile host="app.diagrams.net" modified="2021-03-26T11:10:57.314Z" agent="5.0 (Windows NT 10.0; Win64; x64) AppleWebKit/537.36 (KHTML, like Gecko) Chrome/89.0.4389.90 Safari/537.36" etag="Onnp9QsQKNkaMpD6Fyu3" version="14.5.1" type="github">
  <diagram name="Page-1" id="e7e014a7-5840-1c2e-5031-d8a46d1fe8dd">
    <mxGraphModel dx="4121" dy="3487" grid="1" gridSize="10" guides="1" tooltips="1" connect="1" arrows="1" fold="1" page="1" pageScale="1" pageWidth="1169" pageHeight="826" background="#ffffff" math="0" shadow="0">
      <root>
        <mxCell id="0" />
        <mxCell id="1" parent="0" />
        <mxCell id="j_IWQZukRgsDgJ5B7h0S-45" value="PersonalBoard" style="swimlane;fontStyle=1;align=center;verticalAlign=top;childLayout=stackLayout;horizontal=1;startSize=26;horizontalStack=0;resizeParent=1;resizeParentMax=0;resizeLast=0;collapsible=1;marginBottom=0;" parent="1" vertex="1">
          <mxGeometry x="-1495.5" y="-1480" width="280" height="136" as="geometry" />
        </mxCell>
        <mxCell id="j_IWQZukRgsDgJ5B7h0S-46" value="-faithTrack: FaithTrack" style="text;strokeColor=none;fillColor=none;align=left;verticalAlign=top;spacingLeft=4;spacingRight=4;overflow=hidden;rotatable=0;points=[[0,0.5],[1,0.5]];portConstraint=eastwest;" parent="j_IWQZukRgsDgJ5B7h0S-45" vertex="1">
          <mxGeometry y="26" width="280" height="24" as="geometry" />
        </mxCell>
        <mxCell id="6MP6MsQXi6saDkDlqXph-24" value="-warehouseDepots: WarehouseDepots" style="text;strokeColor=none;fillColor=none;align=left;verticalAlign=top;spacingLeft=4;spacingRight=4;overflow=hidden;rotatable=0;points=[[0,0.5],[1,0.5]];portConstraint=eastwest;" parent="j_IWQZukRgsDgJ5B7h0S-45" vertex="1">
          <mxGeometry y="50" width="280" height="26" as="geometry" />
        </mxCell>
        <mxCell id="6MP6MsQXi6saDkDlqXph-25" value="-strongbox: Strongbox" style="text;strokeColor=none;fillColor=none;align=left;verticalAlign=top;spacingLeft=4;spacingRight=4;overflow=hidden;rotatable=0;points=[[0,0.5],[1,0.5]];portConstraint=eastwest;" parent="j_IWQZukRgsDgJ5B7h0S-45" vertex="1">
          <mxGeometry y="76" width="280" height="26" as="geometry" />
        </mxCell>
        <mxCell id="6MP6MsQXi6saDkDlqXph-26" value="-slotsDevelopmentCards: SlotsDevelopmentCards" style="text;strokeColor=none;fillColor=none;align=left;verticalAlign=top;spacingLeft=4;spacingRight=4;overflow=hidden;rotatable=0;points=[[0,0.5],[1,0.5]];portConstraint=eastwest;" parent="j_IWQZukRgsDgJ5B7h0S-45" vertex="1">
          <mxGeometry y="102" width="280" height="26" as="geometry" />
        </mxCell>
        <mxCell id="j_IWQZukRgsDgJ5B7h0S-47" value="" style="line;strokeWidth=1;fillColor=none;align=left;verticalAlign=middle;spacingTop=-1;spacingLeft=3;spacingRight=3;rotatable=0;labelPosition=right;points=[];portConstraint=eastwest;" parent="j_IWQZukRgsDgJ5B7h0S-45" vertex="1">
          <mxGeometry y="128" width="280" height="8" as="geometry" />
        </mxCell>
        <mxCell id="j_IWQZukRgsDgJ5B7h0S-62" value="«enumeration»&#xa;FavorTiles" style="swimlane;fontStyle=1;childLayout=stackLayout;horizontal=1;startSize=40;fillColor=none;horizontalStack=0;resizeParent=1;resizeParentMax=0;resizeLast=0;collapsible=1;marginBottom=0;" parent="1" vertex="1">
          <mxGeometry x="-895.5" y="-1501" width="115.5" height="118" as="geometry" />
        </mxCell>
        <mxCell id="j_IWQZukRgsDgJ5B7h0S-63" value="covered" style="text;strokeColor=none;fillColor=none;align=left;verticalAlign=top;spacingLeft=4;spacingRight=4;overflow=hidden;rotatable=0;points=[[0,0.5],[1,0.5]];portConstraint=eastwest;" parent="j_IWQZukRgsDgJ5B7h0S-62" vertex="1">
          <mxGeometry y="40" width="115.5" height="26" as="geometry" />
        </mxCell>
        <mxCell id="j_IWQZukRgsDgJ5B7h0S-64" value="ditch" style="text;strokeColor=none;fillColor=none;align=left;verticalAlign=top;spacingLeft=4;spacingRight=4;overflow=hidden;rotatable=0;points=[[0,0.5],[1,0.5]];portConstraint=eastwest;" parent="j_IWQZukRgsDgJ5B7h0S-62" vertex="1">
          <mxGeometry y="66" width="115.5" height="26" as="geometry" />
        </mxCell>
        <mxCell id="j_IWQZukRgsDgJ5B7h0S-65" value="turned" style="text;strokeColor=none;fillColor=none;align=left;verticalAlign=top;spacingLeft=4;spacingRight=4;overflow=hidden;rotatable=0;points=[[0,0.5],[1,0.5]];portConstraint=eastwest;" parent="j_IWQZukRgsDgJ5B7h0S-62" vertex="1">
          <mxGeometry y="92" width="115.5" height="26" as="geometry" />
        </mxCell>
        <mxCell id="j_IWQZukRgsDgJ5B7h0S-69" value="" style="endArrow=none;html=1;entryX=0;entryY=0.32;entryDx=0;entryDy=0;exitX=0.999;exitY=0.331;exitDx=0;exitDy=0;entryPerimeter=0;exitPerimeter=0;" parent="1" source="6MP6MsQXi6saDkDlqXph-27" target="j_IWQZukRgsDgJ5B7h0S-62" edge="1">
          <mxGeometry width="50" height="50" relative="1" as="geometry">
            <mxPoint x="-945.5" y="-1498" as="sourcePoint" />
            <mxPoint x="-695.5" y="-658" as="targetPoint" />
          </mxGeometry>
        </mxCell>
        <mxCell id="j_IWQZukRgsDgJ5B7h0S-74" value="FaithTrack" style="swimlane;fontStyle=1;align=center;verticalAlign=top;childLayout=stackLayout;horizontal=1;startSize=26;horizontalStack=0;resizeParent=1;resizeParentMax=0;resizeLast=0;collapsible=1;marginBottom=0;" parent="1" vertex="1">
          <mxGeometry x="-1125.5" y="-1550" width="180" height="216" as="geometry" />
        </mxCell>
        <mxCell id="6MP6MsQXi6saDkDlqXph-28" value="-faithMarker: int" style="text;strokeColor=none;fillColor=none;align=left;verticalAlign=top;spacingLeft=4;spacingRight=4;overflow=hidden;rotatable=0;points=[[0,0.5],[1,0.5]];portConstraint=eastwest;" parent="j_IWQZukRgsDgJ5B7h0S-74" vertex="1">
          <mxGeometry y="26" width="180" height="26" as="geometry" />
        </mxCell>
        <mxCell id="I1I3rjsC-SGCzknYV9vt-13" value="-PlayerList: ArrayList&lt;Player&gt;" style="text;strokeColor=none;fillColor=none;align=left;verticalAlign=top;spacingLeft=4;spacingRight=4;overflow=hidden;rotatable=0;points=[[0,0.5],[1,0.5]];portConstraint=eastwest;" vertex="1" parent="j_IWQZukRgsDgJ5B7h0S-74">
          <mxGeometry y="52" width="180" height="26" as="geometry" />
        </mxCell>
        <mxCell id="6MP6MsQXi6saDkDlqXph-27" value="-favorTiles: FavorTiles[3]&#xa;" style="text;strokeColor=none;fillColor=none;align=left;verticalAlign=top;spacingLeft=4;spacingRight=4;overflow=hidden;rotatable=0;points=[[0,0.5],[1,0.5]];portConstraint=eastwest;" parent="j_IWQZukRgsDgJ5B7h0S-74" vertex="1">
          <mxGeometry y="78" width="180" height="26" as="geometry" />
        </mxCell>
        <mxCell id="j_IWQZukRgsDgJ5B7h0S-76" value="" style="line;strokeWidth=1;fillColor=none;align=left;verticalAlign=middle;spacingTop=-1;spacingLeft=3;spacingRight=3;rotatable=0;labelPosition=right;points=[];portConstraint=eastwest;" parent="j_IWQZukRgsDgJ5B7h0S-74" vertex="1">
          <mxGeometry y="104" width="180" height="8" as="geometry" />
        </mxCell>
        <mxCell id="j_IWQZukRgsDgJ5B7h0S-77" value="+goOn(int)" style="text;strokeColor=none;fillColor=none;align=left;verticalAlign=top;spacingLeft=4;spacingRight=4;overflow=hidden;rotatable=0;points=[[0,0.5],[1,0.5]];portConstraint=eastwest;" parent="j_IWQZukRgsDgJ5B7h0S-74" vertex="1">
          <mxGeometry y="112" width="180" height="26" as="geometry" />
        </mxCell>
        <mxCell id="zsWBfRV9gmnBReKQ3E4T-20" value="+victoryPoints(): int" style="text;strokeColor=none;fillColor=none;align=left;verticalAlign=top;spacingLeft=4;spacingRight=4;overflow=hidden;rotatable=0;points=[[0,0.5],[1,0.5]];portConstraint=eastwest;" parent="j_IWQZukRgsDgJ5B7h0S-74" vertex="1">
          <mxGeometry y="138" width="180" height="26" as="geometry" />
        </mxCell>
        <mxCell id="zsWBfRV9gmnBReKQ3E4T-41" value="+popeState(ArrayList&lt;Player&gt;)" style="text;strokeColor=none;fillColor=none;align=left;verticalAlign=top;spacingLeft=4;spacingRight=4;overflow=hidden;rotatable=0;points=[[0,0.5],[1,0.5]];portConstraint=eastwest;" parent="j_IWQZukRgsDgJ5B7h0S-74" vertex="1">
          <mxGeometry y="164" width="180" height="26" as="geometry" />
        </mxCell>
        <mxCell id="zsWBfRV9gmnBReKQ3E4T-42" value="+arrived()" style="text;strokeColor=none;fillColor=none;align=left;verticalAlign=top;spacingLeft=4;spacingRight=4;overflow=hidden;rotatable=0;points=[[0,0.5],[1,0.5]];portConstraint=eastwest;" parent="j_IWQZukRgsDgJ5B7h0S-74" vertex="1">
          <mxGeometry y="190" width="180" height="26" as="geometry" />
        </mxCell>
        <mxCell id="j_IWQZukRgsDgJ5B7h0S-78" value="WarehouseDepots" style="swimlane;fontStyle=1;align=center;verticalAlign=top;childLayout=stackLayout;horizontal=1;startSize=26;horizontalStack=0;resizeParent=1;resizeParentMax=0;resizeLast=0;collapsible=1;marginBottom=0;" parent="1" vertex="1">
          <mxGeometry x="-1810" y="-1470" width="190" height="146" as="geometry" />
        </mxCell>
        <mxCell id="j_IWQZukRgsDgJ5B7h0S-79" value="-resource: Resource[6]" style="text;strokeColor=none;fillColor=none;align=left;verticalAlign=top;spacingLeft=4;spacingRight=4;overflow=hidden;rotatable=0;points=[[0,0.5],[1,0.5]];portConstraint=eastwest;" parent="j_IWQZukRgsDgJ5B7h0S-78" vertex="1">
          <mxGeometry y="26" width="190" height="34" as="geometry" />
        </mxCell>
        <mxCell id="j_IWQZukRgsDgJ5B7h0S-80" value="" style="line;strokeWidth=1;fillColor=none;align=left;verticalAlign=middle;spacingTop=-1;spacingLeft=3;spacingRight=3;rotatable=0;labelPosition=right;points=[];portConstraint=eastwest;" parent="j_IWQZukRgsDgJ5B7h0S-78" vertex="1">
          <mxGeometry y="60" width="190" height="8" as="geometry" />
        </mxCell>
        <mxCell id="j_IWQZukRgsDgJ5B7h0S-81" value="+addResouce(Resource, int)" style="text;strokeColor=none;fillColor=none;align=left;verticalAlign=top;spacingLeft=4;spacingRight=4;overflow=hidden;rotatable=0;points=[[0,0.5],[1,0.5]];portConstraint=eastwest;" parent="j_IWQZukRgsDgJ5B7h0S-78" vertex="1">
          <mxGeometry y="68" width="190" height="26" as="geometry" />
        </mxCell>
        <mxCell id="zsWBfRV9gmnBReKQ3E4T-17" value="+moveResouce(int, int)" style="text;strokeColor=none;fillColor=none;align=left;verticalAlign=top;spacingLeft=4;spacingRight=4;overflow=hidden;rotatable=0;points=[[0,0.5],[1,0.5]];portConstraint=eastwest;" parent="j_IWQZukRgsDgJ5B7h0S-78" vertex="1">
          <mxGeometry y="94" width="190" height="26" as="geometry" />
        </mxCell>
        <mxCell id="zsWBfRV9gmnBReKQ3E4T-18" value="+removeResource(int): Resource" style="text;strokeColor=none;fillColor=none;align=left;verticalAlign=top;spacingLeft=4;spacingRight=4;overflow=hidden;rotatable=0;points=[[0,0.5],[1,0.5]];portConstraint=eastwest;" parent="j_IWQZukRgsDgJ5B7h0S-78" vertex="1">
          <mxGeometry y="120" width="190" height="26" as="geometry" />
        </mxCell>
        <mxCell id="j_IWQZukRgsDgJ5B7h0S-86" value="StrongBox" style="swimlane;fontStyle=1;align=center;verticalAlign=top;childLayout=stackLayout;horizontal=1;startSize=26;horizontalStack=0;resizeParent=1;resizeParentMax=0;resizeLast=0;collapsible=1;marginBottom=0;" parent="1" vertex="1">
          <mxGeometry x="-1470.5" y="-1210" width="230" height="292" as="geometry" />
        </mxCell>
        <mxCell id="j_IWQZukRgsDgJ5B7h0S-87" value="-coin: int" style="text;strokeColor=none;fillColor=none;align=left;verticalAlign=top;spacingLeft=4;spacingRight=4;overflow=hidden;rotatable=0;points=[[0,0.5],[1,0.5]];portConstraint=eastwest;" parent="j_IWQZukRgsDgJ5B7h0S-86" vertex="1">
          <mxGeometry y="26" width="230" height="24" as="geometry" />
        </mxCell>
        <mxCell id="I1I3rjsC-SGCzknYV9vt-15" value="-servant: int" style="text;strokeColor=none;fillColor=none;align=left;verticalAlign=top;spacingLeft=4;spacingRight=4;overflow=hidden;rotatable=0;points=[[0,0.5],[1,0.5]];portConstraint=eastwest;" vertex="1" parent="j_IWQZukRgsDgJ5B7h0S-86">
          <mxGeometry y="50" width="230" height="26" as="geometry" />
        </mxCell>
        <mxCell id="I1I3rjsC-SGCzknYV9vt-16" value="-shield: int" style="text;strokeColor=none;fillColor=none;align=left;verticalAlign=top;spacingLeft=4;spacingRight=4;overflow=hidden;rotatable=0;points=[[0,0.5],[1,0.5]];portConstraint=eastwest;" vertex="1" parent="j_IWQZukRgsDgJ5B7h0S-86">
          <mxGeometry y="76" width="230" height="26" as="geometry" />
        </mxCell>
        <mxCell id="I1I3rjsC-SGCzknYV9vt-14" value="-stone: int" style="text;strokeColor=none;fillColor=none;align=left;verticalAlign=top;spacingLeft=4;spacingRight=4;overflow=hidden;rotatable=0;points=[[0,0.5],[1,0.5]];portConstraint=eastwest;" vertex="1" parent="j_IWQZukRgsDgJ5B7h0S-86">
          <mxGeometry y="102" width="230" height="26" as="geometry" />
        </mxCell>
        <mxCell id="j_IWQZukRgsDgJ5B7h0S-88" value="" style="line;strokeWidth=1;fillColor=none;align=left;verticalAlign=middle;spacingTop=-1;spacingLeft=3;spacingRight=3;rotatable=0;labelPosition=right;points=[];portConstraint=eastwest;" parent="j_IWQZukRgsDgJ5B7h0S-86" vertex="1">
          <mxGeometry y="128" width="230" height="8" as="geometry" />
        </mxCell>
        <mxCell id="j_IWQZukRgsDgJ5B7h0S-89" value="+getCoin(): int" style="text;strokeColor=none;fillColor=none;align=left;verticalAlign=top;spacingLeft=4;spacingRight=4;overflow=hidden;rotatable=0;points=[[0,0.5],[1,0.5]];portConstraint=eastwest;" parent="j_IWQZukRgsDgJ5B7h0S-86" vertex="1">
          <mxGeometry y="136" width="230" height="26" as="geometry" />
        </mxCell>
        <mxCell id="zsWBfRV9gmnBReKQ3E4T-8" value="+getStone(): int" style="text;strokeColor=none;fillColor=none;align=left;verticalAlign=top;spacingLeft=4;spacingRight=4;overflow=hidden;rotatable=0;points=[[0,0.5],[1,0.5]];portConstraint=eastwest;" parent="j_IWQZukRgsDgJ5B7h0S-86" vertex="1">
          <mxGeometry y="162" width="230" height="26" as="geometry" />
        </mxCell>
        <mxCell id="zsWBfRV9gmnBReKQ3E4T-10" value="+getServant(): int" style="text;strokeColor=none;fillColor=none;align=left;verticalAlign=top;spacingLeft=4;spacingRight=4;overflow=hidden;rotatable=0;points=[[0,0.5],[1,0.5]];portConstraint=eastwest;" parent="j_IWQZukRgsDgJ5B7h0S-86" vertex="1">
          <mxGeometry y="188" width="230" height="26" as="geometry" />
        </mxCell>
        <mxCell id="zsWBfRV9gmnBReKQ3E4T-11" value="+getShield(): int" style="text;strokeColor=none;fillColor=none;align=left;verticalAlign=top;spacingLeft=4;spacingRight=4;overflow=hidden;rotatable=0;points=[[0,0.5],[1,0.5]];portConstraint=eastwest;" parent="j_IWQZukRgsDgJ5B7h0S-86" vertex="1">
          <mxGeometry y="214" width="230" height="26" as="geometry" />
        </mxCell>
        <mxCell id="zsWBfRV9gmnBReKQ3E4T-12" value="+add(Resource, int)" style="text;strokeColor=none;fillColor=none;align=left;verticalAlign=top;spacingLeft=4;spacingRight=4;overflow=hidden;rotatable=0;points=[[0,0.5],[1,0.5]];portConstraint=eastwest;" parent="j_IWQZukRgsDgJ5B7h0S-86" vertex="1">
          <mxGeometry y="240" width="230" height="26" as="geometry" />
        </mxCell>
        <mxCell id="zsWBfRV9gmnBReKQ3E4T-13" value="+remove(Resource, int)" style="text;strokeColor=none;fillColor=none;align=left;verticalAlign=top;spacingLeft=4;spacingRight=4;overflow=hidden;rotatable=0;points=[[0,0.5],[1,0.5]];portConstraint=eastwest;" parent="j_IWQZukRgsDgJ5B7h0S-86" vertex="1">
          <mxGeometry y="266" width="230" height="26" as="geometry" />
        </mxCell>
        <mxCell id="j_IWQZukRgsDgJ5B7h0S-109" value="SlotsDevelopmentCards" style="swimlane;fontStyle=1;align=center;verticalAlign=top;childLayout=stackLayout;horizontal=1;startSize=26;horizontalStack=0;resizeParent=1;resizeParentMax=0;resizeLast=0;collapsible=1;marginBottom=0;" parent="1" vertex="1">
          <mxGeometry x="-1125.5" y="-1310" width="345.5" height="162" as="geometry" />
        </mxCell>
        <mxCell id="j_IWQZukRgsDgJ5B7h0S-110" value="-Slot: DevelopmentCard[3][3]&#xa;" style="text;strokeColor=none;fillColor=none;align=left;verticalAlign=top;spacingLeft=4;spacingRight=4;overflow=hidden;rotatable=0;points=[[0,0.5],[1,0.5]];portConstraint=eastwest;" parent="j_IWQZukRgsDgJ5B7h0S-109" vertex="1">
          <mxGeometry y="26" width="345.5" height="24" as="geometry" />
        </mxCell>
        <mxCell id="j_IWQZukRgsDgJ5B7h0S-111" value="" style="line;strokeWidth=1;fillColor=none;align=left;verticalAlign=middle;spacingTop=-1;spacingLeft=3;spacingRight=3;rotatable=0;labelPosition=right;points=[];portConstraint=eastwest;" parent="j_IWQZukRgsDgJ5B7h0S-109" vertex="1">
          <mxGeometry y="50" width="345.5" height="8" as="geometry" />
        </mxCell>
        <mxCell id="zsWBfRV9gmnBReKQ3E4T-14" value="+positionsOfAdding(DevelopmentCard): boolean[3]" style="text;strokeColor=none;fillColor=none;align=left;verticalAlign=top;spacingLeft=4;spacingRight=4;overflow=hidden;rotatable=0;points=[[0,0.5],[1,0.5]];portConstraint=eastwest;" parent="j_IWQZukRgsDgJ5B7h0S-109" vertex="1">
          <mxGeometry y="58" width="345.5" height="26" as="geometry" />
        </mxCell>
        <mxCell id="j_IWQZukRgsDgJ5B7h0S-112" value="+addDevelopmentCard(int)" style="text;strokeColor=none;fillColor=none;align=left;verticalAlign=top;spacingLeft=4;spacingRight=4;overflow=hidden;rotatable=0;points=[[0,0.5],[1,0.5]];portConstraint=eastwest;" parent="j_IWQZukRgsDgJ5B7h0S-109" vertex="1">
          <mxGeometry y="84" width="345.5" height="26" as="geometry" />
        </mxCell>
        <mxCell id="zsWBfRV9gmnBReKQ3E4T-15" value="+viewActiveCards(): DevelopmentCard[3]" style="text;strokeColor=none;fillColor=none;align=left;verticalAlign=top;spacingLeft=4;spacingRight=4;overflow=hidden;rotatable=0;points=[[0,0.5],[1,0.5]];portConstraint=eastwest;" parent="j_IWQZukRgsDgJ5B7h0S-109" vertex="1">
          <mxGeometry y="110" width="345.5" height="26" as="geometry" />
        </mxCell>
        <mxCell id="6MP6MsQXi6saDkDlqXph-30" value="+seventhSlotOccupied()" style="text;strokeColor=none;fillColor=none;align=left;verticalAlign=top;spacingLeft=4;spacingRight=4;overflow=hidden;rotatable=0;points=[[0,0.5],[1,0.5]];portConstraint=eastwest;" parent="j_IWQZukRgsDgJ5B7h0S-109" vertex="1">
          <mxGeometry y="136" width="345.5" height="26" as="geometry" />
        </mxCell>
        <mxCell id="j_IWQZukRgsDgJ5B7h0S-113" value="DevelopmentCard" style="swimlane;fontStyle=1;align=center;verticalAlign=top;childLayout=stackLayout;horizontal=1;startSize=26;horizontalStack=0;resizeParent=1;resizeParentMax=0;resizeLast=0;collapsible=1;marginBottom=0;" parent="1" vertex="1">
          <mxGeometry x="-260" y="-1918" width="210" height="216" as="geometry" />
        </mxCell>
        <mxCell id="j_IWQZukRgsDgJ5B7h0S-137" value="-cost: Resources" style="text;strokeColor=none;fillColor=none;align=left;verticalAlign=top;spacingLeft=4;spacingRight=4;overflow=hidden;rotatable=0;points=[[0,0.5],[1,0.5]];portConstraint=eastwest;" parent="j_IWQZukRgsDgJ5B7h0S-113" vertex="1">
          <mxGeometry y="26" width="210" height="26" as="geometry" />
        </mxCell>
        <mxCell id="j_IWQZukRgsDgJ5B7h0S-139" value="-type: Type" style="text;strokeColor=none;fillColor=none;align=left;verticalAlign=top;spacingLeft=4;spacingRight=4;overflow=hidden;rotatable=0;points=[[0,0.5],[1,0.5]];portConstraint=eastwest;" parent="j_IWQZukRgsDgJ5B7h0S-113" vertex="1">
          <mxGeometry y="52" width="210" height="26" as="geometry" />
        </mxCell>
        <mxCell id="j_IWQZukRgsDgJ5B7h0S-138" value="-level: int" style="text;strokeColor=none;fillColor=none;align=left;verticalAlign=top;spacingLeft=4;spacingRight=4;overflow=hidden;rotatable=0;points=[[0,0.5],[1,0.5]];portConstraint=eastwest;" parent="j_IWQZukRgsDgJ5B7h0S-113" vertex="1">
          <mxGeometry y="78" width="210" height="26" as="geometry" />
        </mxCell>
        <mxCell id="j_IWQZukRgsDgJ5B7h0S-140" value="-requirements: Resources" style="text;strokeColor=none;fillColor=none;align=left;verticalAlign=top;spacingLeft=4;spacingRight=4;overflow=hidden;rotatable=0;points=[[0,0.5],[1,0.5]];portConstraint=eastwest;" parent="j_IWQZukRgsDgJ5B7h0S-113" vertex="1">
          <mxGeometry y="104" width="210" height="26" as="geometry" />
        </mxCell>
        <mxCell id="j_IWQZukRgsDgJ5B7h0S-142" value="-products: Resources" style="text;strokeColor=none;fillColor=none;align=left;verticalAlign=top;spacingLeft=4;spacingRight=4;overflow=hidden;rotatable=0;points=[[0,0.5],[1,0.5]];portConstraint=eastwest;" parent="j_IWQZukRgsDgJ5B7h0S-113" vertex="1">
          <mxGeometry y="130" width="210" height="26" as="geometry" />
        </mxCell>
        <mxCell id="j_IWQZukRgsDgJ5B7h0S-143" value="-victorypoints: int" style="text;strokeColor=none;fillColor=none;align=left;verticalAlign=top;spacingLeft=4;spacingRight=4;overflow=hidden;rotatable=0;points=[[0,0.5],[1,0.5]];portConstraint=eastwest;" parent="j_IWQZukRgsDgJ5B7h0S-113" vertex="1">
          <mxGeometry y="156" width="210" height="26" as="geometry" />
        </mxCell>
        <mxCell id="j_IWQZukRgsDgJ5B7h0S-115" value="" style="line;strokeWidth=1;fillColor=none;align=left;verticalAlign=middle;spacingTop=-1;spacingLeft=3;spacingRight=3;rotatable=0;labelPosition=right;points=[];portConstraint=eastwest;" parent="j_IWQZukRgsDgJ5B7h0S-113" vertex="1">
          <mxGeometry y="182" width="210" height="8" as="geometry" />
        </mxCell>
        <mxCell id="6MP6MsQXi6saDkDlqXph-23" value="+resourceProduction(): Resources" style="text;strokeColor=none;fillColor=none;align=left;verticalAlign=top;spacingLeft=4;spacingRight=4;overflow=hidden;rotatable=0;points=[[0,0.5],[1,0.5]];portConstraint=eastwest;" parent="j_IWQZukRgsDgJ5B7h0S-113" vertex="1">
          <mxGeometry y="190" width="210" height="26" as="geometry" />
        </mxCell>
        <mxCell id="j_IWQZukRgsDgJ5B7h0S-123" value="«enumeration»&#xa;Type" style="swimlane;fontStyle=1;childLayout=stackLayout;horizontal=1;startSize=40;fillColor=none;horizontalStack=0;resizeParent=1;resizeParentMax=0;resizeLast=0;collapsible=1;marginBottom=0;verticalAlign=top;" parent="1" vertex="1">
          <mxGeometry x="344.5" y="-2224" width="140" height="146" as="geometry" />
        </mxCell>
        <mxCell id="j_IWQZukRgsDgJ5B7h0S-124" value="Green" style="text;strokeColor=none;fillColor=none;align=left;verticalAlign=top;spacingLeft=4;spacingRight=4;overflow=hidden;rotatable=0;points=[[0,0.5],[1,0.5]];portConstraint=eastwest;" parent="j_IWQZukRgsDgJ5B7h0S-123" vertex="1">
          <mxGeometry y="40" width="140" height="26" as="geometry" />
        </mxCell>
        <mxCell id="j_IWQZukRgsDgJ5B7h0S-125" value="Blue" style="text;strokeColor=none;fillColor=none;align=left;verticalAlign=top;spacingLeft=4;spacingRight=4;overflow=hidden;rotatable=0;points=[[0,0.5],[1,0.5]];portConstraint=eastwest;" parent="j_IWQZukRgsDgJ5B7h0S-123" vertex="1">
          <mxGeometry y="66" width="140" height="26" as="geometry" />
        </mxCell>
        <mxCell id="j_IWQZukRgsDgJ5B7h0S-126" value="Yellow" style="text;strokeColor=none;fillColor=none;align=left;verticalAlign=top;spacingLeft=4;spacingRight=4;overflow=hidden;rotatable=0;points=[[0,0.5],[1,0.5]];portConstraint=eastwest;" parent="j_IWQZukRgsDgJ5B7h0S-123" vertex="1">
          <mxGeometry y="92" width="140" height="28" as="geometry" />
        </mxCell>
        <mxCell id="j_IWQZukRgsDgJ5B7h0S-127" value="Purple" style="text;strokeColor=none;fillColor=none;align=left;verticalAlign=top;spacingLeft=4;spacingRight=4;overflow=hidden;rotatable=0;points=[[0,0.5],[1,0.5]];portConstraint=eastwest;" parent="j_IWQZukRgsDgJ5B7h0S-123" vertex="1">
          <mxGeometry y="120" width="140" height="26" as="geometry" />
        </mxCell>
        <mxCell id="j_IWQZukRgsDgJ5B7h0S-152" value="LeaderCard" style="swimlane;fontStyle=1;align=center;verticalAlign=top;childLayout=stackLayout;horizontal=1;startSize=26;horizontalStack=0;resizeParent=1;resizeParentMax=0;resizeLast=0;collapsible=1;marginBottom=0;" parent="1" vertex="1">
          <mxGeometry x="-225.5" y="-2159" width="220" height="60" as="geometry" />
        </mxCell>
        <mxCell id="j_IWQZukRgsDgJ5B7h0S-156" value="-victorypoints: int" style="text;strokeColor=none;fillColor=none;align=left;verticalAlign=top;spacingLeft=4;spacingRight=4;overflow=hidden;rotatable=0;points=[[0,0.5],[1,0.5]];portConstraint=eastwest;" parent="j_IWQZukRgsDgJ5B7h0S-152" vertex="1">
          <mxGeometry y="26" width="220" height="26" as="geometry" />
        </mxCell>
        <mxCell id="j_IWQZukRgsDgJ5B7h0S-154" value="" style="line;strokeWidth=1;fillColor=none;align=left;verticalAlign=middle;spacingTop=-1;spacingLeft=3;spacingRight=3;rotatable=0;labelPosition=right;points=[];portConstraint=eastwest;" parent="j_IWQZukRgsDgJ5B7h0S-152" vertex="1">
          <mxGeometry y="52" width="220" height="8" as="geometry" />
        </mxCell>
        <mxCell id="j_IWQZukRgsDgJ5B7h0S-167" value="LeaderDeck" style="swimlane;fontStyle=1;align=center;verticalAlign=top;childLayout=stackLayout;horizontal=1;startSize=26;horizontalStack=0;resizeParent=1;resizeParentMax=0;resizeLast=0;collapsible=1;marginBottom=0;" parent="1" vertex="1">
          <mxGeometry x="-485.5" y="-2168" width="180" height="86" as="geometry" />
        </mxCell>
        <mxCell id="j_IWQZukRgsDgJ5B7h0S-168" value="-deck: LeaderCard[16]" style="text;strokeColor=none;fillColor=none;align=left;verticalAlign=top;spacingLeft=4;spacingRight=4;overflow=hidden;rotatable=0;points=[[0,0.5],[1,0.5]];portConstraint=eastwest;" parent="j_IWQZukRgsDgJ5B7h0S-167" vertex="1">
          <mxGeometry y="26" width="180" height="26" as="geometry" />
        </mxCell>
        <mxCell id="j_IWQZukRgsDgJ5B7h0S-169" value="" style="line;strokeWidth=1;fillColor=none;align=left;verticalAlign=middle;spacingTop=-1;spacingLeft=3;spacingRight=3;rotatable=0;labelPosition=right;points=[];portConstraint=eastwest;" parent="j_IWQZukRgsDgJ5B7h0S-167" vertex="1">
          <mxGeometry y="52" width="180" height="8" as="geometry" />
        </mxCell>
        <mxCell id="-SuyyC4R5xekOw7VtIkT-28" value="+draw(): LeaderCard" style="text;strokeColor=none;fillColor=none;align=left;verticalAlign=top;spacingLeft=4;spacingRight=4;overflow=hidden;rotatable=0;points=[[0,0.5],[1,0.5]];portConstraint=eastwest;" parent="j_IWQZukRgsDgJ5B7h0S-167" vertex="1">
          <mxGeometry y="60" width="180" height="26" as="geometry" />
        </mxCell>
        <mxCell id="j_IWQZukRgsDgJ5B7h0S-171" value="DevelopmentDeck" style="swimlane;fontStyle=1;align=center;verticalAlign=top;childLayout=stackLayout;horizontal=1;startSize=26;horizontalStack=0;resizeParent=1;resizeParentMax=0;resizeLast=0;collapsible=1;marginBottom=0;" parent="1" vertex="1">
          <mxGeometry x="-485.5" y="-2057" width="180" height="164" as="geometry" />
        </mxCell>
        <mxCell id="j_IWQZukRgsDgJ5B7h0S-172" value="-deck: DevelopmentCard[4]" style="text;strokeColor=none;fillColor=none;align=left;verticalAlign=top;spacingLeft=4;spacingRight=4;overflow=hidden;rotatable=0;points=[[0,0.5],[1,0.5]];portConstraint=eastwest;" parent="j_IWQZukRgsDgJ5B7h0S-171" vertex="1">
          <mxGeometry y="26" width="180" height="26" as="geometry" />
        </mxCell>
        <mxCell id="j_IWQZukRgsDgJ5B7h0S-173" value="" style="line;strokeWidth=1;fillColor=none;align=left;verticalAlign=middle;spacingTop=-1;spacingLeft=3;spacingRight=3;rotatable=0;labelPosition=right;points=[];portConstraint=eastwest;" parent="j_IWQZukRgsDgJ5B7h0S-171" vertex="1">
          <mxGeometry y="52" width="180" height="8" as="geometry" />
        </mxCell>
        <mxCell id="-SuyyC4R5xekOw7VtIkT-9" value="+view(): DevelopmentCard" style="text;strokeColor=none;fillColor=none;align=left;verticalAlign=top;spacingLeft=4;spacingRight=4;overflow=hidden;rotatable=0;points=[[0,0.5],[1,0.5]];portConstraint=eastwest;" parent="j_IWQZukRgsDgJ5B7h0S-171" vertex="1">
          <mxGeometry y="60" width="180" height="26" as="geometry" />
        </mxCell>
        <mxCell id="-SuyyC4R5xekOw7VtIkT-10" value="+cardsLeft(): int" style="text;strokeColor=none;fillColor=none;align=left;verticalAlign=top;spacingLeft=4;spacingRight=4;overflow=hidden;rotatable=0;points=[[0,0.5],[1,0.5]];portConstraint=eastwest;" parent="j_IWQZukRgsDgJ5B7h0S-171" vertex="1">
          <mxGeometry y="86" width="180" height="26" as="geometry" />
        </mxCell>
        <mxCell id="j_IWQZukRgsDgJ5B7h0S-174" value="+draw(): DevelopmentCard" style="text;strokeColor=none;fillColor=none;align=left;verticalAlign=top;spacingLeft=4;spacingRight=4;overflow=hidden;rotatable=0;points=[[0,0.5],[1,0.5]];portConstraint=eastwest;" parent="j_IWQZukRgsDgJ5B7h0S-171" vertex="1">
          <mxGeometry y="112" width="180" height="26" as="geometry" />
        </mxCell>
        <mxCell id="zsWBfRV9gmnBReKQ3E4T-59" value="+isFinished(): boolean" style="text;strokeColor=none;fillColor=none;align=left;verticalAlign=top;spacingLeft=4;spacingRight=4;overflow=hidden;rotatable=0;points=[[0,0.5],[1,0.5]];portConstraint=eastwest;" parent="j_IWQZukRgsDgJ5B7h0S-171" vertex="1">
          <mxGeometry y="138" width="180" height="26" as="geometry" />
        </mxCell>
        <mxCell id="j_IWQZukRgsDgJ5B7h0S-188" value="«enumeration»&#xa;Resource" style="swimlane;fontStyle=1;childLayout=stackLayout;horizontal=1;startSize=40;fillColor=none;horizontalStack=0;resizeParent=1;resizeParentMax=0;resizeLast=0;collapsible=1;marginBottom=0;verticalAlign=top;" parent="1" vertex="1">
          <mxGeometry x="344.5" y="-2421" width="140" height="144" as="geometry" />
        </mxCell>
        <mxCell id="j_IWQZukRgsDgJ5B7h0S-189" value="coin" style="text;strokeColor=none;fillColor=none;align=left;verticalAlign=top;spacingLeft=4;spacingRight=4;overflow=hidden;rotatable=0;points=[[0,0.5],[1,0.5]];portConstraint=eastwest;" parent="j_IWQZukRgsDgJ5B7h0S-188" vertex="1">
          <mxGeometry y="40" width="140" height="26" as="geometry" />
        </mxCell>
        <mxCell id="j_IWQZukRgsDgJ5B7h0S-190" value="stone" style="text;strokeColor=none;fillColor=none;align=left;verticalAlign=top;spacingLeft=4;spacingRight=4;overflow=hidden;rotatable=0;points=[[0,0.5],[1,0.5]];portConstraint=eastwest;" parent="j_IWQZukRgsDgJ5B7h0S-188" vertex="1">
          <mxGeometry y="66" width="140" height="26" as="geometry" />
        </mxCell>
        <mxCell id="j_IWQZukRgsDgJ5B7h0S-191" value="servant" style="text;strokeColor=none;fillColor=none;align=left;verticalAlign=top;spacingLeft=4;spacingRight=4;overflow=hidden;rotatable=0;points=[[0,0.5],[1,0.5]];portConstraint=eastwest;" parent="j_IWQZukRgsDgJ5B7h0S-188" vertex="1">
          <mxGeometry y="92" width="140" height="26" as="geometry" />
        </mxCell>
        <mxCell id="j_IWQZukRgsDgJ5B7h0S-192" value="shield" style="text;strokeColor=none;fillColor=none;align=left;verticalAlign=top;spacingLeft=4;spacingRight=4;overflow=hidden;rotatable=0;points=[[0,0.5],[1,0.5]];portConstraint=eastwest;" parent="j_IWQZukRgsDgJ5B7h0S-188" vertex="1">
          <mxGeometry y="118" width="140" height="26" as="geometry" />
        </mxCell>
        <mxCell id="j_IWQZukRgsDgJ5B7h0S-193" value="DiscountLeaderCard" style="swimlane;fontStyle=1;align=center;verticalAlign=top;childLayout=stackLayout;horizontal=1;startSize=26;horizontalStack=0;resizeParent=1;resizeParentMax=0;resizeLast=0;collapsible=1;marginBottom=0;" parent="1" vertex="1">
          <mxGeometry x="54.5" y="-2310" width="200" height="112" as="geometry" />
        </mxCell>
        <mxCell id="j_IWQZukRgsDgJ5B7h0S-160" value="-discount: Resource" style="text;strokeColor=none;fillColor=none;align=left;verticalAlign=top;spacingLeft=4;spacingRight=4;overflow=hidden;rotatable=0;points=[[0,0.5],[1,0.5]];portConstraint=eastwest;" parent="j_IWQZukRgsDgJ5B7h0S-193" vertex="1">
          <mxGeometry y="26" width="200" height="26" as="geometry" />
        </mxCell>
        <mxCell id="j_IWQZukRgsDgJ5B7h0S-251" value="-costOfLeaderCard: Type[2]" style="text;strokeColor=none;fillColor=none;align=left;verticalAlign=top;spacingLeft=4;spacingRight=4;overflow=hidden;rotatable=0;points=[[0,0.5],[1,0.5]];portConstraint=eastwest;" parent="j_IWQZukRgsDgJ5B7h0S-193" vertex="1">
          <mxGeometry y="52" width="200" height="26" as="geometry" />
        </mxCell>
        <mxCell id="j_IWQZukRgsDgJ5B7h0S-195" value="" style="line;strokeWidth=1;fillColor=none;align=left;verticalAlign=middle;spacingTop=-1;spacingLeft=3;spacingRight=3;rotatable=0;labelPosition=right;points=[];portConstraint=eastwest;" parent="j_IWQZukRgsDgJ5B7h0S-193" vertex="1">
          <mxGeometry y="78" width="200" height="8" as="geometry" />
        </mxCell>
        <mxCell id="zsWBfRV9gmnBReKQ3E4T-5" value="+setDiscount(): Resouce" style="text;strokeColor=none;fillColor=none;align=left;verticalAlign=top;spacingLeft=4;spacingRight=4;overflow=hidden;rotatable=0;points=[[0,0.5],[1,0.5]];portConstraint=eastwest;" parent="j_IWQZukRgsDgJ5B7h0S-193" vertex="1">
          <mxGeometry y="86" width="200" height="26" as="geometry" />
        </mxCell>
        <mxCell id="j_IWQZukRgsDgJ5B7h0S-197" value="ExtraStorageLeaderCard" style="swimlane;fontStyle=1;align=center;verticalAlign=top;childLayout=stackLayout;horizontal=1;startSize=26;horizontalStack=0;resizeParent=1;resizeParentMax=0;resizeLast=0;collapsible=1;marginBottom=0;" parent="1" vertex="1">
          <mxGeometry x="-215.5" y="-2440" width="200" height="190" as="geometry" />
        </mxCell>
        <mxCell id="j_IWQZukRgsDgJ5B7h0S-246" value="-costOfLeaderCard: Resource" style="text;strokeColor=none;fillColor=none;align=left;verticalAlign=top;spacingLeft=4;spacingRight=4;overflow=hidden;rotatable=0;points=[[0,0.5],[1,0.5]];portConstraint=eastwest;" parent="j_IWQZukRgsDgJ5B7h0S-197" vertex="1">
          <mxGeometry y="26" width="200" height="26" as="geometry" />
        </mxCell>
        <mxCell id="j_IWQZukRgsDgJ5B7h0S-175" value="-extraStorage: Boolean[2]" style="text;strokeColor=none;fillColor=none;align=left;verticalAlign=top;spacingLeft=4;spacingRight=4;overflow=hidden;rotatable=0;points=[[0,0.5],[1,0.5]];portConstraint=eastwest;" parent="j_IWQZukRgsDgJ5B7h0S-197" vertex="1">
          <mxGeometry y="52" width="200" height="26" as="geometry" />
        </mxCell>
        <mxCell id="j_IWQZukRgsDgJ5B7h0S-236" value="-storageType: Resource" style="text;strokeColor=none;fillColor=none;align=left;verticalAlign=top;spacingLeft=4;spacingRight=4;overflow=hidden;rotatable=0;points=[[0,0.5],[1,0.5]];portConstraint=eastwest;" parent="j_IWQZukRgsDgJ5B7h0S-197" vertex="1">
          <mxGeometry y="78" width="200" height="26" as="geometry" />
        </mxCell>
        <mxCell id="j_IWQZukRgsDgJ5B7h0S-199" value="" style="line;strokeWidth=1;fillColor=none;align=left;verticalAlign=middle;spacingTop=-1;spacingLeft=3;spacingRight=3;rotatable=0;labelPosition=right;points=[];portConstraint=eastwest;" parent="j_IWQZukRgsDgJ5B7h0S-197" vertex="1">
          <mxGeometry y="104" width="200" height="8" as="geometry" />
        </mxCell>
        <mxCell id="zsWBfRV9gmnBReKQ3E4T-1" value="+occupiedResources(): int" style="text;strokeColor=none;fillColor=none;align=left;verticalAlign=top;spacingLeft=4;spacingRight=4;overflow=hidden;rotatable=0;points=[[0,0.5],[1,0.5]];portConstraint=eastwest;" parent="j_IWQZukRgsDgJ5B7h0S-197" vertex="1">
          <mxGeometry y="112" width="200" height="26" as="geometry" />
        </mxCell>
        <mxCell id="zsWBfRV9gmnBReKQ3E4T-2" value="+addResource()" style="text;strokeColor=none;fillColor=none;align=left;verticalAlign=top;spacingLeft=4;spacingRight=4;overflow=hidden;rotatable=0;points=[[0,0.5],[1,0.5]];portConstraint=eastwest;" parent="j_IWQZukRgsDgJ5B7h0S-197" vertex="1">
          <mxGeometry y="138" width="200" height="26" as="geometry" />
        </mxCell>
        <mxCell id="zsWBfRV9gmnBReKQ3E4T-3" value="+remouveResouce()" style="text;strokeColor=none;fillColor=none;align=left;verticalAlign=top;spacingLeft=4;spacingRight=4;overflow=hidden;rotatable=0;points=[[0,0.5],[1,0.5]];portConstraint=eastwest;" parent="j_IWQZukRgsDgJ5B7h0S-197" vertex="1">
          <mxGeometry y="164" width="200" height="26" as="geometry" />
        </mxCell>
        <mxCell id="j_IWQZukRgsDgJ5B7h0S-206" value="WhiteMarbleLeaderCard" style="swimlane;fontStyle=1;align=center;verticalAlign=top;childLayout=stackLayout;horizontal=1;startSize=26;horizontalStack=0;resizeParent=1;resizeParentMax=0;resizeLast=0;collapsible=1;marginBottom=0;" parent="1" vertex="1">
          <mxGeometry x="54.5" y="-2190" width="200" height="138" as="geometry" />
        </mxCell>
        <mxCell id="j_IWQZukRgsDgJ5B7h0S-244" value="-costOfLeaderCard: Type[3]" style="text;strokeColor=none;fillColor=none;align=left;verticalAlign=top;spacingLeft=4;spacingRight=4;overflow=hidden;rotatable=0;points=[[0,0.5],[1,0.5]];portConstraint=eastwest;" parent="j_IWQZukRgsDgJ5B7h0S-206" vertex="1">
          <mxGeometry y="26" width="200" height="26" as="geometry" />
        </mxCell>
        <mxCell id="j_IWQZukRgsDgJ5B7h0S-176" value="-whitemarble: Resource" style="text;strokeColor=none;fillColor=none;align=left;verticalAlign=top;spacingLeft=4;spacingRight=4;overflow=hidden;rotatable=0;points=[[0,0.5],[1,0.5]];portConstraint=eastwest;" parent="j_IWQZukRgsDgJ5B7h0S-206" vertex="1">
          <mxGeometry y="52" width="200" height="26" as="geometry" />
        </mxCell>
        <mxCell id="j_IWQZukRgsDgJ5B7h0S-208" value="" style="line;strokeWidth=1;fillColor=none;align=left;verticalAlign=middle;spacingTop=-1;spacingLeft=3;spacingRight=3;rotatable=0;labelPosition=right;points=[];portConstraint=eastwest;" parent="j_IWQZukRgsDgJ5B7h0S-206" vertex="1">
          <mxGeometry y="78" width="200" height="8" as="geometry" />
        </mxCell>
        <mxCell id="j_IWQZukRgsDgJ5B7h0S-209" value="+getCostOfLeaderCard" style="text;strokeColor=none;fillColor=none;align=left;verticalAlign=top;spacingLeft=4;spacingRight=4;overflow=hidden;rotatable=0;points=[[0,0.5],[1,0.5]];portConstraint=eastwest;" parent="j_IWQZukRgsDgJ5B7h0S-206" vertex="1">
          <mxGeometry y="86" width="200" height="26" as="geometry" />
        </mxCell>
        <mxCell id="zsWBfRV9gmnBReKQ3E4T-7" value="+getWhiteMarble(): Resouce" style="text;strokeColor=none;fillColor=none;align=left;verticalAlign=top;spacingLeft=4;spacingRight=4;overflow=hidden;rotatable=0;points=[[0,0.5],[1,0.5]];portConstraint=eastwest;" parent="j_IWQZukRgsDgJ5B7h0S-206" vertex="1">
          <mxGeometry y="112" width="200" height="26" as="geometry" />
        </mxCell>
        <mxCell id="j_IWQZukRgsDgJ5B7h0S-211" value="ProductionPowerLeaderCard" style="swimlane;fontStyle=1;align=center;verticalAlign=top;childLayout=stackLayout;horizontal=1;startSize=26;horizontalStack=0;resizeParent=1;resizeParentMax=0;resizeLast=0;collapsible=1;marginBottom=0;" parent="1" vertex="1">
          <mxGeometry x="54.5" y="-2040" width="200" height="112" as="geometry" />
        </mxCell>
        <mxCell id="j_IWQZukRgsDgJ5B7h0S-249" value="-costOfLeaderCard: Type" style="text;strokeColor=none;fillColor=none;align=left;verticalAlign=top;spacingLeft=4;spacingRight=4;overflow=hidden;rotatable=0;points=[[0,0.5],[1,0.5]];portConstraint=eastwest;" parent="j_IWQZukRgsDgJ5B7h0S-211" vertex="1">
          <mxGeometry y="26" width="200" height="26" as="geometry" />
        </mxCell>
        <mxCell id="j_IWQZukRgsDgJ5B7h0S-177" value="-requirement: Resource" style="text;strokeColor=none;fillColor=none;align=left;verticalAlign=top;spacingLeft=4;spacingRight=4;overflow=hidden;rotatable=0;points=[[0,0.5],[1,0.5]];portConstraint=eastwest;" parent="j_IWQZukRgsDgJ5B7h0S-211" vertex="1">
          <mxGeometry y="52" width="200" height="26" as="geometry" />
        </mxCell>
        <mxCell id="j_IWQZukRgsDgJ5B7h0S-213" value="" style="line;strokeWidth=1;fillColor=none;align=left;verticalAlign=middle;spacingTop=-1;spacingLeft=3;spacingRight=3;rotatable=0;labelPosition=right;points=[];portConstraint=eastwest;" parent="j_IWQZukRgsDgJ5B7h0S-211" vertex="1">
          <mxGeometry y="78" width="200" height="8" as="geometry" />
        </mxCell>
        <mxCell id="6MP6MsQXi6saDkDlqXph-15" value="+resourceProduction(): Resources" style="text;strokeColor=none;fillColor=none;align=left;verticalAlign=top;spacingLeft=4;spacingRight=4;overflow=hidden;rotatable=0;points=[[0,0.5],[1,0.5]];portConstraint=eastwest;" parent="j_IWQZukRgsDgJ5B7h0S-211" vertex="1">
          <mxGeometry y="86" width="200" height="26" as="geometry" />
        </mxCell>
        <mxCell id="j_IWQZukRgsDgJ5B7h0S-221" value="" style="endArrow=diamondThin;endFill=1;endSize=24;html=1;entryX=1;entryY=0.5;entryDx=0;entryDy=0;exitX=0.25;exitY=0;exitDx=0;exitDy=0;" parent="1" source="e2Iy07mbepDIcA7AyD_o-29" target="j_IWQZukRgsDgJ5B7h0S-168" edge="1">
          <mxGeometry width="160" relative="1" as="geometry">
            <mxPoint x="-1130" y="-84" as="sourcePoint" />
            <mxPoint x="-970" y="-84" as="targetPoint" />
            <Array as="points">
              <mxPoint x="-200" y="-2050" />
              <mxPoint x="-260" y="-2050" />
              <mxPoint x="-260" y="-2129" />
            </Array>
          </mxGeometry>
        </mxCell>
        <mxCell id="j_IWQZukRgsDgJ5B7h0S-222" value="" style="endArrow=diamondThin;endFill=1;endSize=24;html=1;entryX=1;entryY=0.5;entryDx=0;entryDy=0;exitX=0;exitY=0.38;exitDx=0;exitDy=0;exitPerimeter=0;" parent="1" source="e2Iy07mbepDIcA7AyD_o-29" target="j_IWQZukRgsDgJ5B7h0S-172" edge="1">
          <mxGeometry width="160" relative="1" as="geometry">
            <mxPoint x="-1120" y="176" as="sourcePoint" />
            <mxPoint x="-960" y="176" as="targetPoint" />
            <Array as="points">
              <mxPoint x="-250" y="-2018" />
            </Array>
          </mxGeometry>
        </mxCell>
        <mxCell id="j_IWQZukRgsDgJ5B7h0S-225" value="Extends" style="endArrow=block;endSize=16;endFill=0;html=1;exitX=-0.004;exitY=0.141;exitDx=0;exitDy=0;exitPerimeter=0;entryX=0.79;entryY=-0.017;entryDx=0;entryDy=0;entryPerimeter=0;" parent="1" source="zsWBfRV9gmnBReKQ3E4T-5" target="j_IWQZukRgsDgJ5B7h0S-152" edge="1">
          <mxGeometry width="160" relative="1" as="geometry">
            <mxPoint x="-850" y="-144" as="sourcePoint" />
            <mxPoint x="-563.6714975845412" y="-230" as="targetPoint" />
            <Array as="points">
              <mxPoint x="-51" y="-2220" />
            </Array>
          </mxGeometry>
        </mxCell>
        <mxCell id="j_IWQZukRgsDgJ5B7h0S-226" value="Extends" style="endArrow=block;endSize=16;endFill=0;html=1;" parent="1" source="j_IWQZukRgsDgJ5B7h0S-197" target="j_IWQZukRgsDgJ5B7h0S-152" edge="1">
          <mxGeometry width="160" relative="1" as="geometry">
            <mxPoint x="-640" y="-124" as="sourcePoint" />
            <mxPoint x="-530.5999999999999" y="-230" as="targetPoint" />
          </mxGeometry>
        </mxCell>
        <mxCell id="j_IWQZukRgsDgJ5B7h0S-228" value="Extends" style="endArrow=block;endSize=16;endFill=0;html=1;exitX=-0.001;exitY=0.531;exitDx=0;exitDy=0;exitPerimeter=0;" parent="1" source="j_IWQZukRgsDgJ5B7h0S-249" edge="1">
          <mxGeometry width="160" relative="1" as="geometry">
            <mxPoint x="-660" y="-134" as="sourcePoint" />
            <mxPoint x="-30" y="-2100" as="targetPoint" />
            <Array as="points">
              <mxPoint x="-30" y="-2000" />
            </Array>
          </mxGeometry>
        </mxCell>
        <mxCell id="j_IWQZukRgsDgJ5B7h0S-238" value="" style="endArrow=none;html=1;exitX=1;exitY=0.5;exitDx=0;exitDy=0;" parent="1" source="j_IWQZukRgsDgJ5B7h0S-236" target="j_IWQZukRgsDgJ5B7h0S-188" edge="1">
          <mxGeometry width="50" height="50" relative="1" as="geometry">
            <mxPoint x="-320" y="-374" as="sourcePoint" />
            <mxPoint x="-270" y="-424" as="targetPoint" />
          </mxGeometry>
        </mxCell>
        <mxCell id="j_IWQZukRgsDgJ5B7h0S-245" value="Extends" style="endArrow=block;endSize=16;endFill=0;html=1;" parent="1" source="j_IWQZukRgsDgJ5B7h0S-206" target="j_IWQZukRgsDgJ5B7h0S-152" edge="1">
          <mxGeometry width="160" relative="1" as="geometry">
            <mxPoint x="-660" y="-214" as="sourcePoint" />
            <mxPoint x="-500" y="-214" as="targetPoint" />
          </mxGeometry>
        </mxCell>
        <mxCell id="j_IWQZukRgsDgJ5B7h0S-257" value="" style="endArrow=none;html=1;exitX=1;exitY=0.5;exitDx=0;exitDy=0;entryX=0.004;entryY=0.89;entryDx=0;entryDy=0;entryPerimeter=0;" parent="1" source="j_IWQZukRgsDgJ5B7h0S-251" target="j_IWQZukRgsDgJ5B7h0S-124" edge="1">
          <mxGeometry width="50" height="50" relative="1" as="geometry">
            <mxPoint x="-210" y="146" as="sourcePoint" />
            <mxPoint x="-160" y="96" as="targetPoint" />
            <Array as="points">
              <mxPoint x="314.5" y="-2245" />
              <mxPoint x="314.5" y="-2161" />
            </Array>
          </mxGeometry>
        </mxCell>
        <mxCell id="j_IWQZukRgsDgJ5B7h0S-258" value="" style="endArrow=none;html=1;exitX=1;exitY=0.5;exitDx=0;exitDy=0;" parent="1" source="j_IWQZukRgsDgJ5B7h0S-244" target="j_IWQZukRgsDgJ5B7h0S-123" edge="1">
          <mxGeometry width="50" height="50" relative="1" as="geometry">
            <mxPoint x="-800" y="76" as="sourcePoint" />
            <mxPoint x="261.8357664233581" y="-1950" as="targetPoint" />
          </mxGeometry>
        </mxCell>
        <mxCell id="j_IWQZukRgsDgJ5B7h0S-274" value="Market" style="swimlane;fontStyle=1;align=center;verticalAlign=top;childLayout=stackLayout;horizontal=1;startSize=26;horizontalStack=0;resizeParent=1;resizeParentMax=0;resizeLast=0;collapsible=1;marginBottom=0;" parent="1" vertex="1">
          <mxGeometry x="-885.5" y="-1828" width="180" height="242" as="geometry" />
        </mxCell>
        <mxCell id="j_IWQZukRgsDgJ5B7h0S-275" value="-marketTray: Marble[3][4]" style="text;strokeColor=none;fillColor=none;align=left;verticalAlign=top;spacingLeft=4;spacingRight=4;overflow=hidden;rotatable=0;points=[[0,0.5],[1,0.5]];portConstraint=eastwest;" parent="j_IWQZukRgsDgJ5B7h0S-274" vertex="1">
          <mxGeometry y="26" width="180" height="26" as="geometry" />
        </mxCell>
        <mxCell id="j_IWQZukRgsDgJ5B7h0S-278" value="-extraMarble: Marble" style="text;strokeColor=none;fillColor=none;align=left;verticalAlign=top;spacingLeft=4;spacingRight=4;overflow=hidden;rotatable=0;points=[[0,0.5],[1,0.5]];portConstraint=eastwest;" parent="j_IWQZukRgsDgJ5B7h0S-274" vertex="1">
          <mxGeometry y="52" width="180" height="26" as="geometry" />
        </mxCell>
        <mxCell id="j_IWQZukRgsDgJ5B7h0S-276" value="" style="line;strokeWidth=1;fillColor=none;align=left;verticalAlign=middle;spacingTop=-1;spacingLeft=3;spacingRight=3;rotatable=0;labelPosition=right;points=[];portConstraint=eastwest;" parent="j_IWQZukRgsDgJ5B7h0S-274" vertex="1">
          <mxGeometry y="78" width="180" height="8" as="geometry" />
        </mxCell>
        <mxCell id="zsWBfRV9gmnBReKQ3E4T-46" value="+chooseRow(int): Marble[4]" style="text;strokeColor=none;fillColor=none;align=left;verticalAlign=top;spacingLeft=4;spacingRight=4;overflow=hidden;rotatable=0;points=[[0,0.5],[1,0.5]];portConstraint=eastwest;" parent="j_IWQZukRgsDgJ5B7h0S-274" vertex="1">
          <mxGeometry y="86" width="180" height="26" as="geometry" />
        </mxCell>
        <mxCell id="zsWBfRV9gmnBReKQ3E4T-47" value="+chooseColumn(int): Marble[3]" style="text;strokeColor=none;fillColor=none;align=left;verticalAlign=top;spacingLeft=4;spacingRight=4;overflow=hidden;rotatable=0;points=[[0,0.5],[1,0.5]];portConstraint=eastwest;" parent="j_IWQZukRgsDgJ5B7h0S-274" vertex="1">
          <mxGeometry y="112" width="180" height="26" as="geometry" />
        </mxCell>
        <mxCell id="I1I3rjsC-SGCzknYV9vt-3" value="-putMarbles(ArrayList&lt;Marble&gt;)" style="text;strokeColor=none;fillColor=none;align=left;verticalAlign=top;spacingLeft=4;spacingRight=4;overflow=hidden;rotatable=0;points=[[0,0.5],[1,0.5]];portConstraint=eastwest;" vertex="1" parent="j_IWQZukRgsDgJ5B7h0S-274">
          <mxGeometry y="138" width="180" height="26" as="geometry" />
        </mxCell>
        <mxCell id="I1I3rjsC-SGCzknYV9vt-4" value="-listToMarket(ArrayList&lt;Marble&gt;)" style="text;strokeColor=none;fillColor=none;align=left;verticalAlign=top;spacingLeft=4;spacingRight=4;overflow=hidden;rotatable=0;points=[[0,0.5],[1,0.5]];portConstraint=eastwest;" vertex="1" parent="j_IWQZukRgsDgJ5B7h0S-274">
          <mxGeometry y="164" width="180" height="26" as="geometry" />
        </mxCell>
        <mxCell id="I1I3rjsC-SGCzknYV9vt-6" value="-shiftColumn(int)" style="text;strokeColor=none;fillColor=none;align=left;verticalAlign=top;spacingLeft=4;spacingRight=4;overflow=hidden;rotatable=0;points=[[0,0.5],[1,0.5]];portConstraint=eastwest;" vertex="1" parent="j_IWQZukRgsDgJ5B7h0S-274">
          <mxGeometry y="190" width="180" height="26" as="geometry" />
        </mxCell>
        <mxCell id="I1I3rjsC-SGCzknYV9vt-5" value="-shiftRow(int)" style="text;strokeColor=none;fillColor=none;align=left;verticalAlign=top;spacingLeft=4;spacingRight=4;overflow=hidden;rotatable=0;points=[[0,0.5],[1,0.5]];portConstraint=eastwest;" vertex="1" parent="j_IWQZukRgsDgJ5B7h0S-274">
          <mxGeometry y="216" width="180" height="26" as="geometry" />
        </mxCell>
        <mxCell id="j_IWQZukRgsDgJ5B7h0S-279" value="Table" style="swimlane;fontStyle=1;align=center;verticalAlign=top;childLayout=stackLayout;horizontal=1;startSize=26;horizontalStack=0;resizeParent=1;resizeParentMax=0;resizeLast=0;collapsible=1;marginBottom=0;" parent="1" vertex="1">
          <mxGeometry x="-920.5" y="-2040" width="250" height="112" as="geometry" />
        </mxCell>
        <mxCell id="j_IWQZukRgsDgJ5B7h0S-290" value="-leaderDeck: LeaderDeck" style="text;strokeColor=none;fillColor=none;align=left;verticalAlign=top;spacingLeft=4;spacingRight=4;overflow=hidden;rotatable=0;points=[[0,0.5],[1,0.5]];portConstraint=eastwest;" parent="j_IWQZukRgsDgJ5B7h0S-279" vertex="1">
          <mxGeometry y="26" width="250" height="26" as="geometry" />
        </mxCell>
        <mxCell id="j_IWQZukRgsDgJ5B7h0S-291" value="-developmentDeck: DevelopmentDeck[3][4]" style="text;strokeColor=none;fillColor=none;align=left;verticalAlign=top;spacingLeft=4;spacingRight=4;overflow=hidden;rotatable=0;points=[[0,0.5],[1,0.5]];portConstraint=eastwest;" parent="j_IWQZukRgsDgJ5B7h0S-279" vertex="1">
          <mxGeometry y="52" width="250" height="26" as="geometry" />
        </mxCell>
        <mxCell id="j_IWQZukRgsDgJ5B7h0S-283" value="-market: Market" style="text;strokeColor=none;fillColor=none;align=left;verticalAlign=top;spacingLeft=4;spacingRight=4;overflow=hidden;rotatable=0;points=[[0,0.5],[1,0.5]];portConstraint=eastwest;" parent="j_IWQZukRgsDgJ5B7h0S-279" vertex="1">
          <mxGeometry y="78" width="250" height="26" as="geometry" />
        </mxCell>
        <mxCell id="j_IWQZukRgsDgJ5B7h0S-281" value="" style="line;strokeWidth=1;fillColor=none;align=left;verticalAlign=middle;spacingTop=-1;spacingLeft=3;spacingRight=3;rotatable=0;labelPosition=right;points=[];portConstraint=eastwest;" parent="j_IWQZukRgsDgJ5B7h0S-279" vertex="1">
          <mxGeometry y="104" width="250" height="8" as="geometry" />
        </mxCell>
        <mxCell id="j_IWQZukRgsDgJ5B7h0S-284" value="Player" style="swimlane;fontStyle=1;align=center;verticalAlign=top;childLayout=stackLayout;horizontal=1;startSize=26;horizontalStack=0;resizeParent=1;resizeParentMax=0;resizeLast=0;collapsible=1;marginBottom=0;" parent="1" vertex="1">
          <mxGeometry x="-1820" y="-1904" width="330" height="346" as="geometry" />
        </mxCell>
        <mxCell id="zsWBfRV9gmnBReKQ3E4T-29" value="-nickname: String" style="text;strokeColor=none;fillColor=none;align=left;verticalAlign=top;spacingLeft=4;spacingRight=4;overflow=hidden;rotatable=0;points=[[0,0.5],[1,0.5]];portConstraint=eastwest;" parent="j_IWQZukRgsDgJ5B7h0S-284" vertex="1">
          <mxGeometry y="26" width="330" height="26" as="geometry" />
        </mxCell>
        <mxCell id="j_IWQZukRgsDgJ5B7h0S-285" value="-personalBoard: PersonalBoard" style="text;strokeColor=none;fillColor=none;align=left;verticalAlign=top;spacingLeft=4;spacingRight=4;overflow=hidden;rotatable=0;points=[[0,0.5],[1,0.5]];portConstraint=eastwest;" parent="j_IWQZukRgsDgJ5B7h0S-284" vertex="1">
          <mxGeometry y="52" width="330" height="26" as="geometry" />
        </mxCell>
        <mxCell id="j_IWQZukRgsDgJ5B7h0S-288" value="-cardsInHand: ArrayList&lt;LeaderCard&gt;" style="text;strokeColor=none;fillColor=none;align=left;verticalAlign=top;spacingLeft=4;spacingRight=4;overflow=hidden;rotatable=0;points=[[0,0.5],[1,0.5]];portConstraint=eastwest;" parent="j_IWQZukRgsDgJ5B7h0S-284" vertex="1">
          <mxGeometry y="78" width="330" height="26" as="geometry" />
        </mxCell>
        <mxCell id="zsWBfRV9gmnBReKQ3E4T-6" value="-cardsOnTable: ArrayList&lt;LeaderCard&gt;" style="text;strokeColor=none;fillColor=none;align=left;verticalAlign=top;spacingLeft=4;spacingRight=4;overflow=hidden;rotatable=0;points=[[0,0.5],[1,0.5]];portConstraint=eastwest;" parent="j_IWQZukRgsDgJ5B7h0S-284" vertex="1">
          <mxGeometry y="104" width="330" height="26" as="geometry" />
        </mxCell>
        <mxCell id="e2Iy07mbepDIcA7AyD_o-33" value="-activeDiscount: Resource" style="text;strokeColor=none;fillColor=none;align=left;verticalAlign=top;spacingLeft=4;spacingRight=4;overflow=hidden;rotatable=0;points=[[0,0.5],[1,0.5]];portConstraint=eastwest;" parent="j_IWQZukRgsDgJ5B7h0S-284" vertex="1">
          <mxGeometry y="130" width="330" height="26" as="geometry" />
        </mxCell>
        <mxCell id="j_IWQZukRgsDgJ5B7h0S-289" value="-inkwell: boolean" style="text;strokeColor=none;fillColor=none;align=left;verticalAlign=top;spacingLeft=4;spacingRight=4;overflow=hidden;rotatable=0;points=[[0,0.5],[1,0.5]];portConstraint=eastwest;" parent="j_IWQZukRgsDgJ5B7h0S-284" vertex="1">
          <mxGeometry y="156" width="330" height="26" as="geometry" />
        </mxCell>
        <mxCell id="j_IWQZukRgsDgJ5B7h0S-286" value="" style="line;strokeWidth=1;fillColor=none;align=left;verticalAlign=middle;spacingTop=-1;spacingLeft=3;spacingRight=3;rotatable=0;labelPosition=right;points=[];portConstraint=eastwest;" parent="j_IWQZukRgsDgJ5B7h0S-284" vertex="1">
          <mxGeometry y="182" width="330" height="8" as="geometry" />
        </mxCell>
        <mxCell id="zsWBfRV9gmnBReKQ3E4T-48" value="+discardLeaderCard(LeaderCard)" style="text;strokeColor=none;fillColor=none;align=left;verticalAlign=top;spacingLeft=4;spacingRight=4;overflow=hidden;rotatable=0;points=[[0,0.5],[1,0.5]];portConstraint=eastwest;" parent="j_IWQZukRgsDgJ5B7h0S-284" vertex="1">
          <mxGeometry y="190" width="330" height="26" as="geometry" />
        </mxCell>
        <mxCell id="zsWBfRV9gmnBReKQ3E4T-49" value="+playLeaderCard(LeaderCard)" style="text;strokeColor=none;fillColor=none;align=left;verticalAlign=top;spacingLeft=4;spacingRight=4;overflow=hidden;rotatable=0;points=[[0,0.5],[1,0.5]];portConstraint=eastwest;" parent="j_IWQZukRgsDgJ5B7h0S-284" vertex="1">
          <mxGeometry y="216" width="330" height="26" as="geometry" />
        </mxCell>
        <mxCell id="zsWBfRV9gmnBReKQ3E4T-50" value="+takeResoucesFromTheMarket(RowColumn, int)" style="text;strokeColor=none;fillColor=none;align=left;verticalAlign=top;spacingLeft=4;spacingRight=4;overflow=hidden;rotatable=0;points=[[0,0.5],[1,0.5]];portConstraint=eastwest;" parent="j_IWQZukRgsDgJ5B7h0S-284" vertex="1">
          <mxGeometry y="242" width="330" height="26" as="geometry" />
        </mxCell>
        <mxCell id="zsWBfRV9gmnBReKQ3E4T-55" value="+buyDevelopmentCard(DevelopmentDeck)" style="text;strokeColor=none;fillColor=none;align=left;verticalAlign=top;spacingLeft=4;spacingRight=4;overflow=hidden;rotatable=0;points=[[0,0.5],[1,0.5]];portConstraint=eastwest;" parent="j_IWQZukRgsDgJ5B7h0S-284" vertex="1">
          <mxGeometry y="268" width="330" height="26" as="geometry" />
        </mxCell>
        <mxCell id="zsWBfRV9gmnBReKQ3E4T-56" value="+activateProductionCard()" style="text;strokeColor=none;fillColor=none;align=left;verticalAlign=top;spacingLeft=4;spacingRight=4;overflow=hidden;rotatable=0;points=[[0,0.5],[1,0.5]];portConstraint=eastwest;" parent="j_IWQZukRgsDgJ5B7h0S-284" vertex="1">
          <mxGeometry y="294" width="330" height="26" as="geometry" />
        </mxCell>
        <mxCell id="zsWBfRV9gmnBReKQ3E4T-63" value="+EndOfTheMatch(): boolean" style="text;strokeColor=none;fillColor=none;align=left;verticalAlign=top;spacingLeft=4;spacingRight=4;overflow=hidden;rotatable=0;points=[[0,0.5],[1,0.5]];portConstraint=eastwest;" parent="j_IWQZukRgsDgJ5B7h0S-284" vertex="1">
          <mxGeometry y="320" width="330" height="26" as="geometry" />
        </mxCell>
        <mxCell id="j_IWQZukRgsDgJ5B7h0S-292" value="" style="endArrow=diamondThin;endFill=1;endSize=24;html=1;" parent="1" source="j_IWQZukRgsDgJ5B7h0S-274" target="j_IWQZukRgsDgJ5B7h0S-279" edge="1">
          <mxGeometry width="160" relative="1" as="geometry">
            <mxPoint x="-545.5" y="-1298" as="sourcePoint" />
            <mxPoint x="-785.5" y="-1930" as="targetPoint" />
          </mxGeometry>
        </mxCell>
        <mxCell id="j_IWQZukRgsDgJ5B7h0S-299" value="" style="endArrow=diamondThin;endFill=1;endSize=24;html=1;" parent="1" source="j_IWQZukRgsDgJ5B7h0S-109" edge="1">
          <mxGeometry width="160" relative="1" as="geometry">
            <mxPoint x="-1505.5" y="-738" as="sourcePoint" />
            <mxPoint x="-1275.5" y="-1344" as="targetPoint" />
            <Array as="points">
              <mxPoint x="-1275.5" y="-1229" />
            </Array>
          </mxGeometry>
        </mxCell>
        <mxCell id="j_IWQZukRgsDgJ5B7h0S-300" value="" style="endArrow=diamondThin;endFill=1;endSize=24;html=1;" parent="1" source="j_IWQZukRgsDgJ5B7h0S-86" target="j_IWQZukRgsDgJ5B7h0S-45" edge="1">
          <mxGeometry width="160" relative="1" as="geometry">
            <mxPoint x="-1155.5" y="-698" as="sourcePoint" />
            <mxPoint x="-995.5" y="-698" as="targetPoint" />
          </mxGeometry>
        </mxCell>
        <mxCell id="j_IWQZukRgsDgJ5B7h0S-301" value="" style="endArrow=diamondThin;endFill=1;endSize=24;html=1;entryX=1;entryY=0.5;entryDx=0;entryDy=0;" parent="1" source="j_IWQZukRgsDgJ5B7h0S-74" target="j_IWQZukRgsDgJ5B7h0S-46" edge="1">
          <mxGeometry width="160" relative="1" as="geometry">
            <mxPoint x="-1155.5" y="-798" as="sourcePoint" />
            <mxPoint x="-995.5" y="-798" as="targetPoint" />
          </mxGeometry>
        </mxCell>
        <mxCell id="j_IWQZukRgsDgJ5B7h0S-305" value="" style="endArrow=diamondThin;endFill=1;endSize=24;html=1;exitX=-0.001;exitY=0.694;exitDx=0;exitDy=0;exitPerimeter=0;entryX=0.484;entryY=0.005;entryDx=0;entryDy=0;entryPerimeter=0;" parent="1" source="e2Iy07mbepDIcA7AyD_o-25" target="j_IWQZukRgsDgJ5B7h0S-279" edge="1">
          <mxGeometry width="160" relative="1" as="geometry">
            <mxPoint x="-815.5" y="-988" as="sourcePoint" />
            <mxPoint x="-802" y="-2039" as="targetPoint" />
            <Array as="points">
              <mxPoint x="-680" y="-2200" />
              <mxPoint x="-800" y="-2200" />
            </Array>
          </mxGeometry>
        </mxCell>
        <mxCell id="-SuyyC4R5xekOw7VtIkT-1" value="" style="endArrow=diamondThin;endFill=1;endSize=24;html=1;exitX=1;exitY=0.973;exitDx=0;exitDy=0;exitPerimeter=0;" parent="1" source="j_IWQZukRgsDgJ5B7h0S-79" target="j_IWQZukRgsDgJ5B7h0S-45" edge="1">
          <mxGeometry width="160" relative="1" as="geometry">
            <mxPoint x="-1615.5" y="-1410" as="sourcePoint" />
            <mxPoint x="-1555.5" y="-888" as="targetPoint" />
          </mxGeometry>
        </mxCell>
        <mxCell id="zsWBfRV9gmnBReKQ3E4T-21" value="«singleton»&#xa;Game" style="swimlane;fontStyle=1;align=center;verticalAlign=top;childLayout=stackLayout;horizontal=1;startSize=40;horizontalStack=0;resizeParent=1;resizeParentMax=0;resizeLast=0;collapsible=1;marginBottom=0;" parent="1" vertex="1">
          <mxGeometry x="-1325.5" y="-2070" width="240" height="242" as="geometry" />
        </mxCell>
        <mxCell id="j_IWQZukRgsDgJ5B7h0S-280" value="-players: ArrayList&lt;Player&gt;" style="text;strokeColor=none;fillColor=none;align=left;verticalAlign=top;spacingLeft=4;spacingRight=4;overflow=hidden;rotatable=0;points=[[0,0.5],[1,0.5]];portConstraint=eastwest;" parent="zsWBfRV9gmnBReKQ3E4T-21" vertex="1">
          <mxGeometry y="40" width="240" height="26" as="geometry" />
        </mxCell>
        <mxCell id="zsWBfRV9gmnBReKQ3E4T-22" value="-table: Table" style="text;strokeColor=none;fillColor=none;align=left;verticalAlign=top;spacingLeft=4;spacingRight=4;overflow=hidden;rotatable=0;points=[[0,0.5],[1,0.5]];portConstraint=eastwest;" parent="zsWBfRV9gmnBReKQ3E4T-21" vertex="1">
          <mxGeometry y="66" width="240" height="38" as="geometry" />
        </mxCell>
        <mxCell id="zsWBfRV9gmnBReKQ3E4T-23" value="" style="line;strokeWidth=1;fillColor=none;align=left;verticalAlign=middle;spacingTop=-1;spacingLeft=3;spacingRight=3;rotatable=0;labelPosition=right;points=[];portConstraint=eastwest;" parent="zsWBfRV9gmnBReKQ3E4T-21" vertex="1">
          <mxGeometry y="104" width="240" height="8" as="geometry" />
        </mxCell>
        <mxCell id="zsWBfRV9gmnBReKQ3E4T-24" value="+startGame()" style="text;strokeColor=none;fillColor=none;align=left;verticalAlign=top;spacingLeft=4;spacingRight=4;overflow=hidden;rotatable=0;points=[[0,0.5],[1,0.5]];portConstraint=eastwest;" parent="zsWBfRV9gmnBReKQ3E4T-21" vertex="1">
          <mxGeometry y="112" width="240" height="26" as="geometry" />
        </mxCell>
        <mxCell id="zsWBfRV9gmnBReKQ3E4T-27" value="+nicknameTaken(String): bolean" style="text;strokeColor=none;fillColor=none;align=left;verticalAlign=top;spacingLeft=4;spacingRight=4;overflow=hidden;rotatable=0;points=[[0,0.5],[1,0.5]];portConstraint=eastwest;" parent="zsWBfRV9gmnBReKQ3E4T-21" vertex="1">
          <mxGeometry y="138" width="240" height="26" as="geometry" />
        </mxCell>
        <mxCell id="zsWBfRV9gmnBReKQ3E4T-28" value="+addPlayer(String)" style="text;strokeColor=none;fillColor=none;align=left;verticalAlign=top;spacingLeft=4;spacingRight=4;overflow=hidden;rotatable=0;points=[[0,0.5],[1,0.5]];portConstraint=eastwest;" parent="zsWBfRV9gmnBReKQ3E4T-21" vertex="1">
          <mxGeometry y="164" width="240" height="26" as="geometry" />
        </mxCell>
        <mxCell id="zsWBfRV9gmnBReKQ3E4T-26" value="+getPlayerByNickename(String): Player" style="text;strokeColor=none;fillColor=none;align=left;verticalAlign=top;spacingLeft=4;spacingRight=4;overflow=hidden;rotatable=0;points=[[0,0.5],[1,0.5]];portConstraint=eastwest;" parent="zsWBfRV9gmnBReKQ3E4T-21" vertex="1">
          <mxGeometry y="190" width="240" height="26" as="geometry" />
        </mxCell>
        <mxCell id="zsWBfRV9gmnBReKQ3E4T-25" value="+endGame()" style="text;strokeColor=none;fillColor=none;align=left;verticalAlign=top;spacingLeft=4;spacingRight=4;overflow=hidden;rotatable=0;points=[[0,0.5],[1,0.5]];portConstraint=eastwest;" parent="zsWBfRV9gmnBReKQ3E4T-21" vertex="1">
          <mxGeometry y="216" width="240" height="26" as="geometry" />
        </mxCell>
        <mxCell id="6MP6MsQXi6saDkDlqXph-1" value="" style="endArrow=classic;html=1;exitX=0;exitY=0.5;exitDx=0;exitDy=0;" parent="1" source="j_IWQZukRgsDgJ5B7h0S-280" edge="1">
          <mxGeometry width="50" height="50" relative="1" as="geometry">
            <mxPoint x="-1575.5" y="-1920" as="sourcePoint" />
            <mxPoint x="-1649" y="-1904" as="targetPoint" />
            <Array as="points">
              <mxPoint x="-1649" y="-2017" />
            </Array>
          </mxGeometry>
        </mxCell>
        <mxCell id="6MP6MsQXi6saDkDlqXph-2" value="comment:&lt;br&gt;for each class &lt;br&gt;there are theire &lt;br&gt;getter and constructor." style="html=1;" parent="1" vertex="1">
          <mxGeometry x="-1495.5" y="-1990" width="130" height="72" as="geometry" />
        </mxCell>
        <mxCell id="6MP6MsQXi6saDkDlqXph-3" value="Turn" style="swimlane;fontStyle=1;align=center;verticalAlign=top;childLayout=stackLayout;horizontal=1;startSize=26;horizontalStack=0;resizeParent=1;resizeParentMax=0;resizeLast=0;collapsible=1;marginBottom=0;" parent="1" vertex="1">
          <mxGeometry x="-1285.5" y="-1750" width="160" height="138" as="geometry" />
        </mxCell>
        <mxCell id="6MP6MsQXi6saDkDlqXph-8" value="-currentplayer: Player" style="text;strokeColor=none;fillColor=none;align=left;verticalAlign=top;spacingLeft=4;spacingRight=4;overflow=hidden;rotatable=0;points=[[0,0.5],[1,0.5]];portConstraint=eastwest;" parent="6MP6MsQXi6saDkDlqXph-3" vertex="1">
          <mxGeometry y="26" width="160" height="26" as="geometry" />
        </mxCell>
        <mxCell id="6MP6MsQXi6saDkDlqXph-5" value="" style="line;strokeWidth=1;fillColor=none;align=left;verticalAlign=middle;spacingTop=-1;spacingLeft=3;spacingRight=3;rotatable=0;labelPosition=right;points=[];portConstraint=eastwest;" parent="6MP6MsQXi6saDkDlqXph-3" vertex="1">
          <mxGeometry y="52" width="160" height="8" as="geometry" />
        </mxCell>
        <mxCell id="zsWBfRV9gmnBReKQ3E4T-62" value="+beginTurn()" style="text;strokeColor=none;fillColor=none;align=left;verticalAlign=top;spacingLeft=4;spacingRight=4;overflow=hidden;rotatable=0;points=[[0,0.5],[1,0.5]];portConstraint=eastwest;" parent="6MP6MsQXi6saDkDlqXph-3" vertex="1">
          <mxGeometry y="60" width="160" height="26" as="geometry" />
        </mxCell>
        <mxCell id="6MP6MsQXi6saDkDlqXph-11" value="-getFirstPlayer()" style="text;strokeColor=none;fillColor=none;align=left;verticalAlign=top;spacingLeft=4;spacingRight=4;overflow=hidden;rotatable=0;points=[[0,0.5],[1,0.5]];portConstraint=eastwest;" parent="6MP6MsQXi6saDkDlqXph-3" vertex="1">
          <mxGeometry y="86" width="160" height="26" as="geometry" />
        </mxCell>
        <mxCell id="6MP6MsQXi6saDkDlqXph-10" value="-nextPlayer()" style="text;strokeColor=none;fillColor=none;align=left;verticalAlign=top;spacingLeft=4;spacingRight=4;overflow=hidden;rotatable=0;points=[[0,0.5],[1,0.5]];portConstraint=eastwest;" parent="6MP6MsQXi6saDkDlqXph-3" vertex="1">
          <mxGeometry y="112" width="160" height="26" as="geometry" />
        </mxCell>
        <mxCell id="6MP6MsQXi6saDkDlqXph-9" value="" style="endArrow=classic;html=1;" parent="1" source="zsWBfRV9gmnBReKQ3E4T-21" target="6MP6MsQXi6saDkDlqXph-3" edge="1">
          <mxGeometry width="50" height="50" relative="1" as="geometry">
            <mxPoint x="-1015.5" y="-1650" as="sourcePoint" />
            <mxPoint x="-965.5" y="-1700" as="targetPoint" />
          </mxGeometry>
        </mxCell>
        <mxCell id="6MP6MsQXi6saDkDlqXph-12" style="edgeStyle=orthogonalEdgeStyle;rounded=0;orthogonalLoop=1;jettySize=auto;html=1;" parent="1" source="zsWBfRV9gmnBReKQ3E4T-62" target="j_IWQZukRgsDgJ5B7h0S-284" edge="1">
          <mxGeometry relative="1" as="geometry" />
        </mxCell>
        <mxCell id="6MP6MsQXi6saDkDlqXph-13" value="" style="endArrow=classic;html=1;exitX=1;exitY=0.5;exitDx=0;exitDy=0;" parent="1" source="zsWBfRV9gmnBReKQ3E4T-22" target="j_IWQZukRgsDgJ5B7h0S-279" edge="1">
          <mxGeometry width="50" height="50" relative="1" as="geometry">
            <mxPoint x="-975.5" y="-1930" as="sourcePoint" />
            <mxPoint x="-925.5" y="-1980" as="targetPoint" />
          </mxGeometry>
        </mxCell>
        <mxCell id="6MP6MsQXi6saDkDlqXph-17" value="" style="endArrow=none;html=1;exitX=1;exitY=0.5;exitDx=0;exitDy=0;" parent="1" source="j_IWQZukRgsDgJ5B7h0S-249" target="j_IWQZukRgsDgJ5B7h0S-123" edge="1">
          <mxGeometry width="50" height="50" relative="1" as="geometry">
            <mxPoint x="264.5" y="-1910" as="sourcePoint" />
            <mxPoint x="314.5" y="-1960" as="targetPoint" />
            <Array as="points">
              <mxPoint x="414.5" y="-2001" />
            </Array>
          </mxGeometry>
        </mxCell>
        <mxCell id="6MP6MsQXi6saDkDlqXph-18" value="" style="endArrow=none;html=1;exitX=1;exitY=0.5;exitDx=0;exitDy=0;entryX=1;entryY=0.5;entryDx=0;entryDy=0;" parent="1" source="j_IWQZukRgsDgJ5B7h0S-177" target="j_IWQZukRgsDgJ5B7h0S-192" edge="1">
          <mxGeometry width="50" height="50" relative="1" as="geometry">
            <mxPoint x="264.5" y="-2154" as="sourcePoint" />
            <mxPoint x="314.5" y="-2204" as="targetPoint" />
            <Array as="points">
              <mxPoint x="530" y="-1975" />
              <mxPoint x="530" y="-2290" />
            </Array>
          </mxGeometry>
        </mxCell>
        <mxCell id="6MP6MsQXi6saDkDlqXph-20" value="" style="endArrow=none;html=1;exitX=0.5;exitY=0;exitDx=0;exitDy=0;entryX=-0.005;entryY=0.737;entryDx=0;entryDy=0;entryPerimeter=0;" parent="1" source="j_IWQZukRgsDgJ5B7h0S-193" target="j_IWQZukRgsDgJ5B7h0S-190" edge="1">
          <mxGeometry width="50" height="50" relative="1" as="geometry">
            <mxPoint x="-55.5" y="-2270" as="sourcePoint" />
            <mxPoint x="-5.5" y="-2320" as="targetPoint" />
            <Array as="points">
              <mxPoint x="154.5" y="-2336" />
            </Array>
          </mxGeometry>
        </mxCell>
        <mxCell id="6MP6MsQXi6saDkDlqXph-22" value="" style="endArrow=none;html=1;exitX=1;exitY=0.5;exitDx=0;exitDy=0;entryX=-0.004;entryY=0.346;entryDx=0;entryDy=0;entryPerimeter=0;" parent="1" source="j_IWQZukRgsDgJ5B7h0S-176" target="j_IWQZukRgsDgJ5B7h0S-192" edge="1">
          <mxGeometry width="50" height="50" relative="1" as="geometry">
            <mxPoint x="-85.5" y="-1890" as="sourcePoint" />
            <mxPoint x="-35.5" y="-1940" as="targetPoint" />
            <Array as="points">
              <mxPoint x="294.5" y="-2125" />
              <mxPoint x="294.5" y="-2294" />
            </Array>
          </mxGeometry>
        </mxCell>
        <mxCell id="6MP6MsQXi6saDkDlqXph-29" value="" style="endArrow=classic;html=1;exitX=1;exitY=0.5;exitDx=0;exitDy=0;" parent="1" source="j_IWQZukRgsDgJ5B7h0S-110" target="j_IWQZukRgsDgJ5B7h0S-113" edge="1">
          <mxGeometry width="50" height="50" relative="1" as="geometry">
            <mxPoint x="-525.5" y="-1260" as="sourcePoint" />
            <mxPoint x="-475.5" y="-1310" as="targetPoint" />
            <Array as="points">
              <mxPoint x="-645.5" y="-1272" />
              <mxPoint x="-645.5" y="-1590" />
              <mxPoint x="-155" y="-1590" />
            </Array>
          </mxGeometry>
        </mxCell>
        <mxCell id="6MP6MsQXi6saDkDlqXph-31" value="" style="endArrow=none;html=1;exitX=1.005;exitY=0.151;exitDx=0;exitDy=0;exitPerimeter=0;" parent="1" source="j_IWQZukRgsDgJ5B7h0S-188" target="j_IWQZukRgsDgJ5B7h0S-78" edge="1">
          <mxGeometry width="50" height="50" relative="1" as="geometry">
            <mxPoint x="-1725.5" y="-1130" as="sourcePoint" />
            <mxPoint x="-1675.5" y="-1180" as="targetPoint" />
            <Array as="points">
              <mxPoint x="620" y="-2399" />
              <mxPoint x="620" y="-860" />
              <mxPoint x="-1715" y="-860" />
            </Array>
          </mxGeometry>
        </mxCell>
        <mxCell id="6MP6MsQXi6saDkDlqXph-42" value="" style="endArrow=none;html=1;entryX=0.485;entryY=1.022;entryDx=0;entryDy=0;entryPerimeter=0;exitX=1;exitY=0.5;exitDx=0;exitDy=0;" parent="1" source="j_IWQZukRgsDgJ5B7h0S-189" target="zsWBfRV9gmnBReKQ3E4T-13" edge="1">
          <mxGeometry width="50" height="50" relative="1" as="geometry">
            <mxPoint x="580" y="-1540" as="sourcePoint" />
            <mxPoint x="-1340" y="-960" as="targetPoint" />
            <Array as="points">
              <mxPoint x="590" y="-2368" />
              <mxPoint x="590" y="-890" />
              <mxPoint x="-1359" y="-890" />
            </Array>
          </mxGeometry>
        </mxCell>
        <mxCell id="e2Iy07mbepDIcA7AyD_o-3" value="Marble" style="swimlane;fontStyle=1;align=center;verticalAlign=top;childLayout=stackLayout;horizontal=1;startSize=26;horizontalStack=0;resizeParent=1;resizeParentMax=0;resizeLast=0;collapsible=1;marginBottom=0;" parent="1" vertex="1">
          <mxGeometry x="-520" y="-1520" width="340" height="112" as="geometry" />
        </mxCell>
        <mxCell id="e2Iy07mbepDIcA7AyD_o-5" value="" style="line;strokeWidth=1;fillColor=none;align=left;verticalAlign=middle;spacingTop=-1;spacingLeft=3;spacingRight=3;rotatable=0;labelPosition=right;points=[];portConstraint=eastwest;" parent="e2Iy07mbepDIcA7AyD_o-3" vertex="1">
          <mxGeometry y="26" width="340" height="8" as="geometry" />
        </mxCell>
        <mxCell id="e2Iy07mbepDIcA7AyD_o-6" value="+putResource(WarehouseDepots, int)" style="text;strokeColor=none;fillColor=none;align=left;verticalAlign=top;spacingLeft=4;spacingRight=4;overflow=hidden;rotatable=0;points=[[0,0.5],[1,0.5]];portConstraint=eastwest;" parent="e2Iy07mbepDIcA7AyD_o-3" vertex="1">
          <mxGeometry y="34" width="340" height="26" as="geometry" />
        </mxCell>
        <mxCell id="Ni3QF3jS_E6Amse3e-I2-9" value="+putResource(LeaderCard)" style="text;strokeColor=none;fillColor=none;align=left;verticalAlign=top;spacingLeft=4;spacingRight=4;overflow=hidden;rotatable=0;points=[[0,0.5],[1,0.5]];portConstraint=eastwest;" parent="e2Iy07mbepDIcA7AyD_o-3" vertex="1">
          <mxGeometry y="60" width="340" height="26" as="geometry" />
        </mxCell>
        <mxCell id="Ni3QF3jS_E6Amse3e-I2-10" value="+putResource(FaithTrack)" style="text;strokeColor=none;fillColor=none;align=left;verticalAlign=top;spacingLeft=4;spacingRight=4;overflow=hidden;rotatable=0;points=[[0,0.5],[1,0.5]];portConstraint=eastwest;" parent="e2Iy07mbepDIcA7AyD_o-3" vertex="1">
          <mxGeometry y="86" width="340" height="26" as="geometry" />
        </mxCell>
        <mxCell id="e2Iy07mbepDIcA7AyD_o-7" value="Coin" style="swimlane;fontStyle=1;align=center;verticalAlign=top;childLayout=stackLayout;horizontal=1;startSize=26;horizontalStack=0;resizeParent=1;resizeParentMax=0;resizeLast=0;collapsible=1;marginBottom=0;" parent="1" vertex="1">
          <mxGeometry x="180" y="-1408" width="160" height="60" as="geometry" />
        </mxCell>
        <mxCell id="I1I3rjsC-SGCzknYV9vt-7" value="-whatIAm: Resource" style="text;strokeColor=none;fillColor=none;align=left;verticalAlign=top;spacingLeft=4;spacingRight=4;overflow=hidden;rotatable=0;points=[[0,0.5],[1,0.5]];portConstraint=eastwest;" vertex="1" parent="e2Iy07mbepDIcA7AyD_o-7">
          <mxGeometry y="26" width="160" height="26" as="geometry" />
        </mxCell>
        <mxCell id="e2Iy07mbepDIcA7AyD_o-9" value="" style="line;strokeWidth=1;fillColor=none;align=left;verticalAlign=middle;spacingTop=-1;spacingLeft=3;spacingRight=3;rotatable=0;labelPosition=right;points=[];portConstraint=eastwest;" parent="e2Iy07mbepDIcA7AyD_o-7" vertex="1">
          <mxGeometry y="52" width="160" height="8" as="geometry" />
        </mxCell>
        <mxCell id="e2Iy07mbepDIcA7AyD_o-11" value="Stone" style="swimlane;fontStyle=1;align=center;verticalAlign=top;childLayout=stackLayout;horizontal=1;startSize=26;horizontalStack=0;resizeParent=1;resizeParentMax=0;resizeLast=0;collapsible=1;marginBottom=0;" parent="1" vertex="1">
          <mxGeometry x="180" y="-1340" width="160" height="60" as="geometry" />
        </mxCell>
        <mxCell id="I1I3rjsC-SGCzknYV9vt-8" value="-whatIAm: Resource" style="text;strokeColor=none;fillColor=none;align=left;verticalAlign=top;spacingLeft=4;spacingRight=4;overflow=hidden;rotatable=0;points=[[0,0.5],[1,0.5]];portConstraint=eastwest;" vertex="1" parent="e2Iy07mbepDIcA7AyD_o-11">
          <mxGeometry y="26" width="160" height="26" as="geometry" />
        </mxCell>
        <mxCell id="e2Iy07mbepDIcA7AyD_o-12" value="" style="line;strokeWidth=1;fillColor=none;align=left;verticalAlign=middle;spacingTop=-1;spacingLeft=3;spacingRight=3;rotatable=0;labelPosition=right;points=[];portConstraint=eastwest;" parent="e2Iy07mbepDIcA7AyD_o-11" vertex="1">
          <mxGeometry y="52" width="160" height="8" as="geometry" />
        </mxCell>
        <mxCell id="e2Iy07mbepDIcA7AyD_o-13" value="Servant" style="swimlane;fontStyle=1;align=center;verticalAlign=top;childLayout=stackLayout;horizontal=1;startSize=26;horizontalStack=0;resizeParent=1;resizeParentMax=0;resizeLast=0;collapsible=1;marginBottom=0;" parent="1" vertex="1">
          <mxGeometry x="180" y="-1270" width="160" height="60" as="geometry" />
        </mxCell>
        <mxCell id="I1I3rjsC-SGCzknYV9vt-9" value="-whatIAm: Resource" style="text;strokeColor=none;fillColor=none;align=left;verticalAlign=top;spacingLeft=4;spacingRight=4;overflow=hidden;rotatable=0;points=[[0,0.5],[1,0.5]];portConstraint=eastwest;" vertex="1" parent="e2Iy07mbepDIcA7AyD_o-13">
          <mxGeometry y="26" width="160" height="26" as="geometry" />
        </mxCell>
        <mxCell id="e2Iy07mbepDIcA7AyD_o-14" value="" style="line;strokeWidth=1;fillColor=none;align=left;verticalAlign=middle;spacingTop=-1;spacingLeft=3;spacingRight=3;rotatable=0;labelPosition=right;points=[];portConstraint=eastwest;" parent="e2Iy07mbepDIcA7AyD_o-13" vertex="1">
          <mxGeometry y="52" width="160" height="8" as="geometry" />
        </mxCell>
        <mxCell id="e2Iy07mbepDIcA7AyD_o-15" value="Shield" style="swimlane;fontStyle=1;align=center;verticalAlign=top;childLayout=stackLayout;horizontal=1;startSize=26;horizontalStack=0;resizeParent=1;resizeParentMax=0;resizeLast=0;collapsible=1;marginBottom=0;" parent="1" vertex="1">
          <mxGeometry x="180" y="-1200" width="160" height="60" as="geometry" />
        </mxCell>
        <mxCell id="I1I3rjsC-SGCzknYV9vt-10" value="-whatIAm: Resource" style="text;strokeColor=none;fillColor=none;align=left;verticalAlign=top;spacingLeft=4;spacingRight=4;overflow=hidden;rotatable=0;points=[[0,0.5],[1,0.5]];portConstraint=eastwest;" vertex="1" parent="e2Iy07mbepDIcA7AyD_o-15">
          <mxGeometry y="26" width="160" height="26" as="geometry" />
        </mxCell>
        <mxCell id="e2Iy07mbepDIcA7AyD_o-16" value="" style="line;strokeWidth=1;fillColor=none;align=left;verticalAlign=middle;spacingTop=-1;spacingLeft=3;spacingRight=3;rotatable=0;labelPosition=right;points=[];portConstraint=eastwest;" parent="e2Iy07mbepDIcA7AyD_o-15" vertex="1">
          <mxGeometry y="52" width="160" height="8" as="geometry" />
        </mxCell>
        <mxCell id="e2Iy07mbepDIcA7AyD_o-17" value="White" style="swimlane;fontStyle=1;align=center;verticalAlign=top;childLayout=stackLayout;horizontal=1;startSize=26;horizontalStack=0;resizeParent=1;resizeParentMax=0;resizeLast=0;collapsible=1;marginBottom=0;" parent="1" vertex="1">
          <mxGeometry x="180" y="-1130" width="160" height="60" as="geometry" />
        </mxCell>
        <mxCell id="I1I3rjsC-SGCzknYV9vt-11" value="-whatIAm: Resource" style="text;strokeColor=none;fillColor=none;align=left;verticalAlign=top;spacingLeft=4;spacingRight=4;overflow=hidden;rotatable=0;points=[[0,0.5],[1,0.5]];portConstraint=eastwest;" vertex="1" parent="e2Iy07mbepDIcA7AyD_o-17">
          <mxGeometry y="26" width="160" height="26" as="geometry" />
        </mxCell>
        <mxCell id="e2Iy07mbepDIcA7AyD_o-18" value="" style="line;strokeWidth=1;fillColor=none;align=left;verticalAlign=middle;spacingTop=-1;spacingLeft=3;spacingRight=3;rotatable=0;labelPosition=right;points=[];portConstraint=eastwest;" parent="e2Iy07mbepDIcA7AyD_o-17" vertex="1">
          <mxGeometry y="52" width="160" height="8" as="geometry" />
        </mxCell>
        <mxCell id="e2Iy07mbepDIcA7AyD_o-19" value="Faith" style="swimlane;fontStyle=1;align=center;verticalAlign=top;childLayout=stackLayout;horizontal=1;startSize=26;horizontalStack=0;resizeParent=1;resizeParentMax=0;resizeLast=0;collapsible=1;marginBottom=0;" parent="1" vertex="1">
          <mxGeometry x="180" y="-1050" width="160" height="60" as="geometry" />
        </mxCell>
        <mxCell id="I1I3rjsC-SGCzknYV9vt-12" value="-whatIAm: Resource" style="text;strokeColor=none;fillColor=none;align=left;verticalAlign=top;spacingLeft=4;spacingRight=4;overflow=hidden;rotatable=0;points=[[0,0.5],[1,0.5]];portConstraint=eastwest;" vertex="1" parent="e2Iy07mbepDIcA7AyD_o-19">
          <mxGeometry y="26" width="160" height="26" as="geometry" />
        </mxCell>
        <mxCell id="e2Iy07mbepDIcA7AyD_o-20" value="" style="line;strokeWidth=1;fillColor=none;align=left;verticalAlign=middle;spacingTop=-1;spacingLeft=3;spacingRight=3;rotatable=0;labelPosition=right;points=[];portConstraint=eastwest;" parent="e2Iy07mbepDIcA7AyD_o-19" vertex="1">
          <mxGeometry y="52" width="160" height="8" as="geometry" />
        </mxCell>
        <mxCell id="e2Iy07mbepDIcA7AyD_o-25" value="Deck«abstract»" style="swimlane;fontStyle=1;align=center;verticalAlign=top;childLayout=stackLayout;horizontal=1;startSize=26;horizontalStack=0;resizeParent=1;resizeParentMax=0;resizeLast=0;collapsible=1;marginBottom=0;" parent="1" vertex="1">
          <mxGeometry x="-720" y="-2224" width="160" height="34" as="geometry" />
        </mxCell>
        <mxCell id="e2Iy07mbepDIcA7AyD_o-27" value="" style="line;strokeWidth=1;fillColor=none;align=left;verticalAlign=middle;spacingTop=-1;spacingLeft=3;spacingRight=3;rotatable=0;labelPosition=right;points=[];portConstraint=eastwest;" parent="e2Iy07mbepDIcA7AyD_o-25" vertex="1">
          <mxGeometry y="26" width="160" height="8" as="geometry" />
        </mxCell>
        <mxCell id="e2Iy07mbepDIcA7AyD_o-29" value="Card«abstract»" style="swimlane;fontStyle=1;align=center;verticalAlign=top;childLayout=stackLayout;horizontal=1;startSize=26;horizontalStack=0;resizeParent=1;resizeParentMax=0;resizeLast=0;collapsible=1;marginBottom=0;" parent="1" vertex="1">
          <mxGeometry x="-240" y="-2031" width="160" height="34" as="geometry" />
        </mxCell>
        <mxCell id="e2Iy07mbepDIcA7AyD_o-31" value="" style="line;strokeWidth=1;fillColor=none;align=left;verticalAlign=middle;spacingTop=-1;spacingLeft=3;spacingRight=3;rotatable=0;labelPosition=right;points=[];portConstraint=eastwest;" parent="e2Iy07mbepDIcA7AyD_o-29" vertex="1">
          <mxGeometry y="26" width="160" height="8" as="geometry" />
        </mxCell>
        <mxCell id="Dj6PW9C-VZuECv3QVdTz-2" value="Extends" style="endArrow=block;endSize=16;endFill=0;html=1;exitX=0.53;exitY=0;exitDx=0;exitDy=0;exitPerimeter=0;" parent="1" source="j_IWQZukRgsDgJ5B7h0S-167" target="e2Iy07mbepDIcA7AyD_o-25" edge="1">
          <mxGeometry x="0.099" width="160" relative="1" as="geometry">
            <mxPoint x="-390" y="-2170" as="sourcePoint" />
            <mxPoint x="-105.5" y="-2149" as="targetPoint" />
            <Array as="points">
              <mxPoint x="-390" y="-2207" />
            </Array>
            <mxPoint as="offset" />
          </mxGeometry>
        </mxCell>
        <mxCell id="Dj6PW9C-VZuECv3QVdTz-3" value="Extends" style="endArrow=block;endSize=16;endFill=0;html=1;exitX=0;exitY=0.664;exitDx=0;exitDy=0;exitPerimeter=0;" parent="1" source="-SuyyC4R5xekOw7VtIkT-9" target="e2Iy07mbepDIcA7AyD_o-25" edge="1">
          <mxGeometry width="160" relative="1" as="geometry">
            <mxPoint x="-105.5" y="-2240" as="sourcePoint" />
            <mxPoint x="-105.5" y="-2149" as="targetPoint" />
            <Array as="points">
              <mxPoint x="-640" y="-1980" />
            </Array>
          </mxGeometry>
        </mxCell>
        <mxCell id="Dj6PW9C-VZuECv3QVdTz-4" value="Extends" style="endArrow=block;endSize=16;endFill=0;html=1;" parent="1" target="e2Iy07mbepDIcA7AyD_o-29" edge="1">
          <mxGeometry width="160" relative="1" as="geometry">
            <mxPoint x="-160" y="-2099" as="sourcePoint" />
            <mxPoint x="-105.5" y="-2149" as="targetPoint" />
          </mxGeometry>
        </mxCell>
        <mxCell id="Dj6PW9C-VZuECv3QVdTz-5" value="Extends" style="endArrow=block;endSize=16;endFill=0;html=1;" parent="1" source="j_IWQZukRgsDgJ5B7h0S-113" target="e2Iy07mbepDIcA7AyD_o-29" edge="1">
          <mxGeometry width="160" relative="1" as="geometry">
            <mxPoint x="-150" y="-2089" as="sourcePoint" />
            <mxPoint x="-150" y="-2021" as="targetPoint" />
          </mxGeometry>
        </mxCell>
        <mxCell id="Dj6PW9C-VZuECv3QVdTz-6" value="" style="endArrow=diamondThin;endFill=1;endSize=24;html=1;" parent="1" source="e2Iy07mbepDIcA7AyD_o-3" target="j_IWQZukRgsDgJ5B7h0S-274" edge="1">
          <mxGeometry width="160" relative="1" as="geometry">
            <mxPoint x="-230" y="-2008.0800000000002" as="sourcePoint" />
            <mxPoint x="-295.5" y="-2008" as="targetPoint" />
            <Array as="points">
              <mxPoint x="-350" y="-1710" />
            </Array>
          </mxGeometry>
        </mxCell>
        <mxCell id="Dj6PW9C-VZuECv3QVdTz-7" value="Extends" style="endArrow=block;endSize=16;endFill=0;html=1;" parent="1" source="e2Iy07mbepDIcA7AyD_o-19" target="e2Iy07mbepDIcA7AyD_o-3" edge="1">
          <mxGeometry x="0.801" width="160" relative="1" as="geometry">
            <mxPoint x="-480" y="-1190" as="sourcePoint" />
            <mxPoint x="-487.4333333333335" y="-1616" as="targetPoint" />
            <Array as="points">
              <mxPoint x="-350" y="-1018" />
            </Array>
            <mxPoint as="offset" />
          </mxGeometry>
        </mxCell>
        <mxCell id="Dj6PW9C-VZuECv3QVdTz-8" value="" style="endArrow=none;html=1;entryX=0.001;entryY=0.589;entryDx=0;entryDy=0;entryPerimeter=0;" parent="1" target="e2Iy07mbepDIcA7AyD_o-7" edge="1">
          <mxGeometry width="50" height="50" relative="1" as="geometry">
            <mxPoint x="-350" y="-1372" as="sourcePoint" />
            <mxPoint x="180" y="-1374" as="targetPoint" />
          </mxGeometry>
        </mxCell>
        <mxCell id="Dj6PW9C-VZuECv3QVdTz-9" value="" style="endArrow=none;html=1;" parent="1" target="e2Iy07mbepDIcA7AyD_o-11" edge="1">
          <mxGeometry width="50" height="50" relative="1" as="geometry">
            <mxPoint x="-350" y="-1310" as="sourcePoint" />
            <mxPoint x="130" y="-1302" as="targetPoint" />
          </mxGeometry>
        </mxCell>
        <mxCell id="Dj6PW9C-VZuECv3QVdTz-10" value="" style="endArrow=none;html=1;" parent="1" target="e2Iy07mbepDIcA7AyD_o-13" edge="1">
          <mxGeometry width="50" height="50" relative="1" as="geometry">
            <mxPoint x="-350" y="-1241" as="sourcePoint" />
            <mxPoint x="150" y="-1242" as="targetPoint" />
          </mxGeometry>
        </mxCell>
        <mxCell id="Dj6PW9C-VZuECv3QVdTz-11" value="" style="endArrow=none;html=1;" parent="1" target="e2Iy07mbepDIcA7AyD_o-15" edge="1">
          <mxGeometry width="50" height="50" relative="1" as="geometry">
            <mxPoint x="-350" y="-1169" as="sourcePoint" />
            <mxPoint x="140" y="-1182" as="targetPoint" />
          </mxGeometry>
        </mxCell>
        <mxCell id="Dj6PW9C-VZuECv3QVdTz-12" value="" style="endArrow=none;html=1;" parent="1" target="e2Iy07mbepDIcA7AyD_o-17" edge="1">
          <mxGeometry width="50" height="50" relative="1" as="geometry">
            <mxPoint x="-350" y="-1099" as="sourcePoint" />
            <mxPoint x="140" y="-1112" as="targetPoint" />
          </mxGeometry>
        </mxCell>
        <mxCell id="Ni3QF3jS_E6Amse3e-I2-1" value="«enumeration»&#xa;RowColumn" style="swimlane;fontStyle=1;childLayout=stackLayout;horizontal=1;startSize=40;fillColor=none;horizontalStack=0;resizeParent=1;resizeParentMax=0;resizeLast=0;collapsible=1;marginBottom=0;verticalAlign=top;" parent="1" vertex="1">
          <mxGeometry x="-2100" y="-1695" width="140" height="92" as="geometry" />
        </mxCell>
        <mxCell id="Ni3QF3jS_E6Amse3e-I2-2" value="Row" style="text;strokeColor=none;fillColor=none;align=left;verticalAlign=top;spacingLeft=4;spacingRight=4;overflow=hidden;rotatable=0;points=[[0,0.5],[1,0.5]];portConstraint=eastwest;" parent="Ni3QF3jS_E6Amse3e-I2-1" vertex="1">
          <mxGeometry y="40" width="140" height="26" as="geometry" />
        </mxCell>
        <mxCell id="Ni3QF3jS_E6Amse3e-I2-3" value="Column" style="text;strokeColor=none;fillColor=none;align=left;verticalAlign=top;spacingLeft=4;spacingRight=4;overflow=hidden;rotatable=0;points=[[0,0.5],[1,0.5]];portConstraint=eastwest;" parent="Ni3QF3jS_E6Amse3e-I2-1" vertex="1">
          <mxGeometry y="66" width="140" height="26" as="geometry" />
        </mxCell>
        <mxCell id="Mrccg3TBgf1VR6d4QuiP-1" value="" style="endArrow=none;html=1;entryX=0;entryY=0.5;entryDx=0;entryDy=0;" parent="1" source="Ni3QF3jS_E6Amse3e-I2-1" target="zsWBfRV9gmnBReKQ3E4T-50" edge="1">
          <mxGeometry width="50" height="50" relative="1" as="geometry">
            <mxPoint x="-1910" y="-1620" as="sourcePoint" />
            <mxPoint x="-1860" y="-1670" as="targetPoint" />
          </mxGeometry>
        </mxCell>
        <mxCell id="I1I3rjsC-SGCzknYV9vt-1" value="" style="endArrow=classic;html=1;entryX=1;entryY=0.5;entryDx=0;entryDy=0;" edge="1" parent="1" source="j_IWQZukRgsDgJ5B7h0S-113" target="j_IWQZukRgsDgJ5B7h0S-191">
          <mxGeometry width="50" height="50" relative="1" as="geometry">
            <mxPoint x="140" y="-1740" as="sourcePoint" />
            <mxPoint x="560" y="-1804" as="targetPoint" />
            <Array as="points">
              <mxPoint x="560" y="-1810" />
              <mxPoint x="560" y="-2316" />
            </Array>
          </mxGeometry>
        </mxCell>
        <mxCell id="I1I3rjsC-SGCzknYV9vt-2" value="" style="endArrow=classic;html=1;entryX=0.5;entryY=0;entryDx=0;entryDy=0;exitX=1.001;exitY=0.656;exitDx=0;exitDy=0;exitPerimeter=0;" edge="1" parent="1" source="j_IWQZukRgsDgJ5B7h0S-288" target="j_IWQZukRgsDgJ5B7h0S-45">
          <mxGeometry width="50" height="50" relative="1" as="geometry">
            <mxPoint x="-1440" y="-1770" as="sourcePoint" />
            <mxPoint x="-1390" y="-1820" as="targetPoint" />
            <Array as="points">
              <mxPoint x="-1355" y="-1810" />
            </Array>
          </mxGeometry>
        </mxCell>
      </root>
    </mxGraphModel>
  </diagram>
</mxfile>
